<?xml version="1.0" encoding="UTF-8" standalone="no"?>
<!DOCTYPE svg PUBLIC "-//W3C//DTD SVG 1.1//EN"
 "http://www.w3.org/Graphics/SVG/1.1/DTD/svg11.dtd">
<!-- Generated by graphviz version 2.47.3 (0)
 -->
<!-- Title: G Pages: 1 -->
<svg width="1034pt" height="504pt"
 viewBox="0.00 0.00 1034.00 504.00" xmlns="http://www.w3.org/2000/svg" xmlns:xlink="http://www.w3.org/1999/xlink">
<g id="graph0" class="graph" transform="scale(1 1) rotate(0) translate(4 500)">
<title>G</title>
<polygon fill="white" stroke="transparent" points="-4,4 -4,-500 1030,-500 1030,4 -4,4"/>
<g id="clust1" class="cluster">
<title>cluster_c1</title>
<g id="a_clust1"><a xlink:href="https://bacardi.dlr.de/prov/entity/TaskBundle/1" xlink:title="task_bundle:1">
<polygon fill="none" stroke="black" points="122,-8 122,-488 894,-488 894,-8 122,-8"/>
<text text-anchor="middle" x="508" y="-15.8" font-family="Times New Roman,serif" font-size="14.00">task_bundle:1</text>
</a>
</g>
</g>
<!-- n1 -->
<g id="node1" class="node">
<title>n1</title>
<g id="a_node1"><a xlink:href="https://bacardi.dlr.de/prov/agent/BACARDI" xlink:title="agent:BACARDI">
<polygon fill="#fed37f" stroke="black" points="851.67,-384.56 760,-397 668.33,-384.56 668.42,-364.44 851.58,-364.44 851.67,-384.56"/>
<text text-anchor="middle" x="760" y="-375.3" font-family="Times New Roman,serif" font-size="14.00">agent:BACARDI</text>
</a>
</g>
</g>
<!-- ann1 -->
<g id="node2" class="node">
<title>ann1</title>
<polygon fill="none" stroke="gray" points="1020,-314 904,-314 904,-278 1026,-278 1026,-308 1020,-314"/>
<polyline fill="none" stroke="gray" points="1020,-314 1020,-308 "/>
<polyline fill="none" stroke="gray" points="1026,-308 1020,-308 "/>
<g id="a_node2_0"><a xlink:href="http://www.w3.org/ns/prov#type" xlink:title="&lt;TABLE&gt;">
<text text-anchor="start" x="914" y="-293" font-family="Times New Roman,serif" font-size="10.00">prov:type</text>
</a>
</g>
<text text-anchor="start" x="955" y="-293" font-family="Times New Roman,serif" font-size="10.00">SoftwareAgent</text>
</g>
<!-- ann1&#45;&gt;n1 -->
<g id="edge1" class="edge">
<title>ann1&#45;&gt;n1</title>
<path fill="none" stroke="gray" stroke-dasharray="5,2" d="M921.52,-314.18C883.68,-329.13 829.55,-350.52 794.59,-364.33"/>
</g>
<!-- n2 -->
<g id="node3" class="node">
<title>n2</title>
<g id="a_node3"><a xlink:href="https://bacardi.dlr.de/prov/agent/GSOC" xlink:title="agent:GSOC">
<polygon fill="#fed37f" stroke="black" points="885.89,-301.56 815,-314 744.11,-301.56 744.17,-281.44 885.83,-281.44 885.89,-301.56"/>
<text text-anchor="middle" x="815" y="-292.3" font-family="Times New Roman,serif" font-size="14.00">agent:GSOC</text>
</a>
</g>
</g>
<!-- ann2 -->
<g id="node4" class="node">
<title>ann2</title>
<polygon fill="none" stroke="gray" points="1010,-231 902,-231 902,-195 1016,-195 1016,-225 1010,-231"/>
<polyline fill="none" stroke="gray" points="1010,-231 1010,-225 "/>
<polyline fill="none" stroke="gray" points="1016,-225 1010,-225 "/>
<g id="a_node4_1"><a xlink:href="http://www.w3.org/ns/prov#type" xlink:title="&lt;TABLE&gt;">
<text text-anchor="start" x="912" y="-210" font-family="Times New Roman,serif" font-size="10.00">prov:type</text>
</a>
</g>
<text text-anchor="start" x="953" y="-210" font-family="Times New Roman,serif" font-size="10.00">Organization</text>
</g>
<!-- ann2&#45;&gt;n2 -->
<g id="edge2" class="edge">
<title>ann2&#45;&gt;n2</title>
<path fill="none" stroke="gray" stroke-dasharray="5,2" d="M933.78,-231.13C920.16,-240.12 902.92,-251.09 887,-260 873.54,-267.54 858.22,-275.12 845.17,-281.29"/>
</g>
<!-- n3 -->
<g id="node5" class="node">
<title>n3</title>
<g id="a_node5"><a xlink:href="https://bacardi.dlr.de/prov/agent/SPACE-TRACK" xlink:title="agent:SPACE&#45;TRACK">
<polygon fill="#fed37f" stroke="black" points="400.48,-467.56 284,-480 167.52,-467.56 167.63,-447.44 400.37,-447.44 400.48,-467.56"/>
<text text-anchor="middle" x="284" y="-458.3" font-family="Times New Roman,serif" font-size="14.00">agent:SPACE&#45;TRACK</text>
</a>
</g>
</g>
<!-- ann3 -->
<g id="node6" class="node">
<title>ann3</title>
<polygon fill="none" stroke="gray" points="108,-397 0,-397 0,-361 114,-361 114,-391 108,-397"/>
<polyline fill="none" stroke="gray" points="108,-397 108,-391 "/>
<polyline fill="none" stroke="gray" points="114,-391 108,-391 "/>
<g id="a_node6_2"><a xlink:href="http://www.w3.org/ns/prov#type" xlink:title="&lt;TABLE&gt;">
<text text-anchor="start" x="10" y="-376" font-family="Times New Roman,serif" font-size="10.00">prov:type</text>
</a>
</g>
<text text-anchor="start" x="51" y="-376" font-family="Times New Roman,serif" font-size="10.00">Organization</text>
</g>
<!-- ann3&#45;&gt;n3 -->
<g id="edge3" class="edge">
<title>ann3&#45;&gt;n3</title>
<path fill="none" stroke="gray" stroke-dasharray="5,2" d="M104.86,-397.08C146.88,-412.07 207.18,-433.59 245.97,-447.43"/>
</g>
<!-- n4 -->
<g id="node7" class="node">
<title>n4</title>
<g id="a_node7"><a xlink:href="https://bacardi.dlr.de/prov/entity/Input/1" xlink:title="input:1">
<ellipse fill="#fffc87" stroke="#808080" cx="322" cy="-296" rx="36.29" ry="18"/>
<text text-anchor="middle" x="322" y="-292.3" font-family="Times New Roman,serif" font-size="14.00">input:1</text>
</a>
</g>
</g>
<!-- n6 -->
<g id="node11" class="node">
<title>n6</title>
<g id="a_node11"><a xlink:href="https://bacardi.dlr.de/prov/entity/TaskConfiguration/1" xlink:title="task_config:1">
<ellipse fill="#fffc87" stroke="#808080" cx="537" cy="-379" rx="60.39" ry="18"/>
<text text-anchor="middle" x="537" y="-375.3" font-family="Times New Roman,serif" font-size="14.00">task_config:1</text>
</a>
</g>
</g>
<!-- n4&#45;&gt;n6 -->
<g id="edge19" class="edge">
<title>n4&#45;&gt;n6</title>
<path fill="none" stroke="black" d="M350.08,-307.62C355.69,-309.73 361.53,-311.94 367,-314 409.03,-329.85 456.92,-347.88 491.13,-360.75"/>
<polygon fill="black" stroke="black" points="490.26,-364.16 500.85,-364.4 492.72,-357.61 490.26,-364.16"/>
<text text-anchor="middle" x="465.5" y="-335" font-family="Times New Roman,serif" font-size="10.00">hadMember</text>
</g>
<!-- n8 -->
<g id="node15" class="node">
<title>n8</title>
<g id="a_node15"><a xlink:href="https://bacardi.dlr.de/prov/entity/DbEntry/1" xlink:title="db_entry:1">
<ellipse fill="#fffc87" stroke="#808080" cx="205" cy="-379" rx="50.09" ry="18"/>
<text text-anchor="middle" x="205" y="-375.3" font-family="Times New Roman,serif" font-size="14.00">db_entry:1</text>
</a>
</g>
</g>
<!-- n4&#45;&gt;n8 -->
<g id="edge18" class="edge">
<title>n4&#45;&gt;n8</title>
<path fill="none" stroke="black" d="M300.72,-310.78C290.99,-317.15 279.35,-324.87 269,-332 257.62,-339.84 245.26,-348.66 234.46,-356.46"/>
<polygon fill="black" stroke="black" points="232.23,-353.75 226.18,-362.45 236.33,-359.42 232.23,-353.75"/>
<text text-anchor="middle" x="293.5" y="-335" font-family="Times New Roman,serif" font-size="10.00">hadMember</text>
</g>
<!-- n10 -->
<g id="node19" class="node">
<title>n10</title>
<g id="a_node19"><a xlink:href="https://bacardi.dlr.de/prov/entity/Product/1" xlink:title="product:1">
<ellipse fill="#fffc87" stroke="#808080" cx="322" cy="-379" rx="45.49" ry="18"/>
<text text-anchor="middle" x="322" y="-375.3" font-family="Times New Roman,serif" font-size="14.00">product:1</text>
</a>
</g>
</g>
<!-- n4&#45;&gt;n10 -->
<g id="edge17" class="edge">
<title>n4&#45;&gt;n10</title>
<path fill="none" stroke="black" d="M322,-314.18C322,-324.81 322,-338.69 322,-350.8"/>
<polygon fill="black" stroke="black" points="318.5,-350.85 322,-360.85 325.5,-350.85 318.5,-350.85"/>
<text text-anchor="middle" x="346.5" y="-335" font-family="Times New Roman,serif" font-size="10.00">hadMember</text>
</g>
<!-- ann4 -->
<g id="node8" class="node">
<title>ann4</title>
<polygon fill="none" stroke="gray" points="291,-231 173,-231 173,-195 297,-195 297,-225 291,-231"/>
<polyline fill="none" stroke="gray" points="291,-231 291,-225 "/>
<polyline fill="none" stroke="gray" points="297,-225 291,-225 "/>
<g id="a_node8_3"><a xlink:href="http://www.w3.org/ns/prov#type" xlink:title="&lt;TABLE&gt;">
<text text-anchor="start" x="183" y="-217" font-family="Times New Roman,serif" font-size="10.00">prov:type</text>
</a>
</g>
<g id="a_node8_4"><a xlink:href="http://www.w3.org/ns/prov#collection" xlink:title="&lt;TABLE&gt;">
<text text-anchor="start" x="224" y="-217" font-family="Times New Roman,serif" font-size="10.00">prov:collection</text>
</a>
</g>
<g id="a_node8_5"><a xlink:href="http://www.w3.org/ns/prov#type" xlink:title="&lt;TABLE&gt;">
<text text-anchor="start" x="183" y="-204" font-family="Times New Roman,serif" font-size="10.00">prov:type</text>
</a>
</g>
<text text-anchor="start" x="224" y="-204" font-family="Times New Roman,serif" font-size="10.00">task_type:Input</text>
</g>
<!-- ann4&#45;&gt;n4 -->
<g id="edge4" class="edge">
<title>ann4&#45;&gt;n4</title>
<path fill="none" stroke="gray" stroke-dasharray="5,2" d="M253.45,-231.18C268.91,-245.57 290.78,-265.93 305.63,-279.76"/>
</g>
<!-- n5 -->
<g id="node9" class="node">
<title>n5</title>
<g id="a_node9"><a xlink:href="https://bacardi.dlr.de/prov/entity/Output/1" xlink:title="output:1">
<ellipse fill="#fffc87" stroke="#808080" cx="554" cy="-130" rx="40.89" ry="18"/>
<text text-anchor="middle" x="554" y="-126.3" font-family="Times New Roman,serif" font-size="14.00">output:1</text>
</a>
</g>
</g>
<!-- n7 -->
<g id="node13" class="node">
<title>n7</title>
<g id="a_node13"><a xlink:href="https://bacardi.dlr.de/prov/entity/TaskLog/1" xlink:title="task_log:1">
<ellipse fill="#fffc87" stroke="#808080" cx="482" cy="-213" rx="48.99" ry="18"/>
<text text-anchor="middle" x="482" y="-209.3" font-family="Times New Roman,serif" font-size="14.00">task_log:1</text>
</a>
</g>
</g>
<!-- n5&#45;&gt;n7 -->
<g id="edge21" class="edge">
<title>n5&#45;&gt;n7</title>
<path fill="none" stroke="black" d="M523.59,-142.3C506.6,-149.28 487.87,-158.35 483,-166 479.45,-171.57 478.09,-178.34 477.87,-184.96"/>
<polygon fill="black" stroke="black" points="474.38,-185.2 478.33,-195.03 481.37,-184.88 474.38,-185.2"/>
<text text-anchor="middle" x="507.5" y="-169" font-family="Times New Roman,serif" font-size="10.00">hadMember</text>
</g>
<!-- n9 -->
<g id="node17" class="node">
<title>n9</title>
<g id="a_node17"><a xlink:href="https://bacardi.dlr.de/prov/entity/DbEntry/2" xlink:title="db_entry:2">
<ellipse fill="#fffc87" stroke="#808080" cx="365" cy="-213" rx="50.09" ry="18"/>
<text text-anchor="middle" x="365" y="-209.3" font-family="Times New Roman,serif" font-size="14.00">db_entry:2</text>
</a>
</g>
</g>
<!-- n5&#45;&gt;n9 -->
<g id="edge22" class="edge">
<title>n5&#45;&gt;n9</title>
<path fill="none" stroke="black" d="M523.59,-142.15C517.47,-144.22 511.06,-146.27 505,-148 469.95,-157.99 458.01,-150.55 425,-166 412.34,-171.93 399.82,-180.89 389.53,-189.33"/>
<polygon fill="black" stroke="black" points="387.13,-186.77 381.79,-195.92 391.67,-192.1 387.13,-186.77"/>
<text text-anchor="middle" x="449.5" y="-169" font-family="Times New Roman,serif" font-size="10.00">hadMember</text>
</g>
<!-- n11 -->
<g id="node21" class="node">
<title>n11</title>
<g id="a_node21"><a xlink:href="https://bacardi.dlr.de/prov/entity/Product/2" xlink:title="product:2">
<ellipse fill="#fffc87" stroke="#808080" cx="815" cy="-213" rx="45.49" ry="18"/>
<text text-anchor="middle" x="815" y="-209.3" font-family="Times New Roman,serif" font-size="14.00">product:2</text>
</a>
</g>
</g>
<!-- n5&#45;&gt;n11 -->
<g id="edge23" class="edge">
<title>n5&#45;&gt;n11</title>
<path fill="none" stroke="black" d="M585.15,-141.77C591.38,-143.87 597.89,-146.04 604,-148 660.85,-166.28 726.76,-186.05 769.58,-198.7"/>
<polygon fill="black" stroke="black" points="768.84,-202.13 779.42,-201.6 770.82,-195.41 768.84,-202.13"/>
<text text-anchor="middle" x="720.5" y="-169" font-family="Times New Roman,serif" font-size="10.00">hadMember</text>
</g>
<!-- n12 -->
<g id="node23" class="node">
<title>n12</title>
<g id="a_node23"><a xlink:href="https://bacardi.dlr.de/prov/activity/Task/1" xlink:title="task:1">
<polygon fill="#9fb1fc" stroke="#0000ff" points="666,-231 612,-231 612,-195 666,-195 666,-231"/>
<text text-anchor="middle" x="639" y="-209.3" font-family="Times New Roman,serif" font-size="14.00">task:1</text>
</a>
</g>
</g>
<!-- n5&#45;&gt;n12 -->
<g id="edge24" class="edge">
<title>n5&#45;&gt;n12</title>
<path fill="none" stroke="darkgreen" d="M550.12,-148.11C549,-157.41 549.33,-168.69 555,-177 565.65,-192.6 584.67,-201.26 601.92,-206.06"/>
<polygon fill="darkgreen" stroke="darkgreen" points="601.25,-209.5 611.79,-208.47 602.91,-202.7 601.25,-209.5"/>
<text text-anchor="middle" x="589.5" y="-169" font-family="Times New Roman,serif" font-size="10.00" fill="darkgreen">wasGeneratedBy</text>
</g>
<!-- ann5 -->
<g id="node10" class="node">
<title>ann5</title>
<polygon fill="none" stroke="gray" points="613,-75 489,-75 489,-39 619,-39 619,-69 613,-75"/>
<polyline fill="none" stroke="gray" points="613,-75 613,-69 "/>
<polyline fill="none" stroke="gray" points="619,-69 613,-69 "/>
<g id="a_node10_6"><a xlink:href="http://www.w3.org/ns/prov#type" xlink:title="&lt;TABLE&gt;">
<text text-anchor="start" x="499" y="-61" font-family="Times New Roman,serif" font-size="10.00">prov:type</text>
</a>
</g>
<g id="a_node10_7"><a xlink:href="http://www.w3.org/ns/prov#collection" xlink:title="&lt;TABLE&gt;">
<text text-anchor="start" x="540" y="-61" font-family="Times New Roman,serif" font-size="10.00">prov:collection</text>
</a>
</g>
<g id="a_node10_8"><a xlink:href="http://www.w3.org/ns/prov#type" xlink:title="&lt;TABLE&gt;">
<text text-anchor="start" x="499" y="-48" font-family="Times New Roman,serif" font-size="10.00">prov:type</text>
</a>
</g>
<text text-anchor="start" x="540" y="-48" font-family="Times New Roman,serif" font-size="10.00">task_type:Output</text>
</g>
<!-- ann5&#45;&gt;n5 -->
<g id="edge5" class="edge">
<title>ann5&#45;&gt;n5</title>
<path fill="none" stroke="gray" stroke-dasharray="5,2" d="M554,-75.19C554,-86.35 554,-100.84 554,-111.97"/>
</g>
<!-- ann6 -->
<g id="node12" class="node">
<title>ann6</title>
<polygon fill="none" stroke="gray" points="699.5,-314 528.5,-314 528.5,-278 705.5,-278 705.5,-308 699.5,-314"/>
<polyline fill="none" stroke="gray" points="699.5,-314 699.5,-308 "/>
<polyline fill="none" stroke="gray" points="705.5,-308 699.5,-308 "/>
<g id="a_node12_9"><a xlink:href="http://www.w3.org/ns/prov#type" xlink:title="&lt;TABLE&gt;">
<text text-anchor="start" x="539" y="-293" font-family="Times New Roman,serif" font-size="10.00">prov:type</text>
</a>
</g>
<text text-anchor="start" x="580" y="-293" font-family="Times New Roman,serif" font-size="10.00">task_type:TaskConfiguration</text>
</g>
<!-- ann6&#45;&gt;n6 -->
<g id="edge6" class="edge">
<title>ann6&#45;&gt;n6</title>
<path fill="none" stroke="gray" stroke-dasharray="5,2" d="M600.03,-314.18C586.27,-328.11 567,-347.63 553.39,-361.4"/>
</g>
<!-- ann7 -->
<g id="node14" class="node">
<title>ann7</title>
<polygon fill="none" stroke="gray" points="489.5,-148 358.5,-148 358.5,-112 495.5,-112 495.5,-142 489.5,-148"/>
<polyline fill="none" stroke="gray" points="489.5,-148 489.5,-142 "/>
<polyline fill="none" stroke="gray" points="495.5,-142 489.5,-142 "/>
<g id="a_node14_10"><a xlink:href="http://www.w3.org/ns/prov#type" xlink:title="&lt;TABLE&gt;">
<text text-anchor="start" x="369" y="-127" font-family="Times New Roman,serif" font-size="10.00">prov:type</text>
</a>
</g>
<text text-anchor="start" x="410" y="-127" font-family="Times New Roman,serif" font-size="10.00">task_type:TaskLog</text>
</g>
<!-- ann7&#45;&gt;n7 -->
<g id="edge7" class="edge">
<title>ann7&#45;&gt;n7</title>
<path fill="none" stroke="gray" stroke-dasharray="5,2" d="M438.66,-148.18C448.12,-162.11 461.38,-181.63 470.73,-195.4"/>
</g>
<!-- ann8 -->
<g id="node16" class="node">
<title>ann8</title>
<polygon fill="none" stroke="gray" points="261.5,-314 130.5,-314 130.5,-278 267.5,-278 267.5,-308 261.5,-314"/>
<polyline fill="none" stroke="gray" points="261.5,-314 261.5,-308 "/>
<polyline fill="none" stroke="gray" points="267.5,-308 261.5,-308 "/>
<g id="a_node16_11"><a xlink:href="http://www.w3.org/ns/prov#type" xlink:title="&lt;TABLE&gt;">
<text text-anchor="start" x="141" y="-293" font-family="Times New Roman,serif" font-size="10.00">prov:type</text>
</a>
</g>
<text text-anchor="start" x="182" y="-293" font-family="Times New Roman,serif" font-size="10.00">task_type:DbEntry</text>
</g>
<!-- ann8&#45;&gt;n8 -->
<g id="edge8" class="edge">
<title>ann8&#45;&gt;n8</title>
<path fill="none" stroke="gray" stroke-dasharray="5,2" d="M200.27,-314.18C201.29,-327.92 202.71,-347.11 203.73,-360.85"/>
</g>
<!-- ann9 -->
<g id="node18" class="node">
<title>ann9</title>
<polygon fill="none" stroke="gray" points="334.5,-148 203.5,-148 203.5,-112 340.5,-112 340.5,-142 334.5,-148"/>
<polyline fill="none" stroke="gray" points="334.5,-148 334.5,-142 "/>
<polyline fill="none" stroke="gray" points="340.5,-142 334.5,-142 "/>
<g id="a_node18_12"><a xlink:href="http://www.w3.org/ns/prov#type" xlink:title="&lt;TABLE&gt;">
<text text-anchor="start" x="214" y="-127" font-family="Times New Roman,serif" font-size="10.00">prov:type</text>
</a>
</g>
<text text-anchor="start" x="255" y="-127" font-family="Times New Roman,serif" font-size="10.00">task_type:DbEntry</text>
</g>
<!-- ann9&#45;&gt;n9 -->
<g id="edge9" class="edge">
<title>ann9&#45;&gt;n9</title>
<path fill="none" stroke="gray" stroke-dasharray="5,2" d="M291.72,-148.18C308.04,-162.39 331.03,-182.41 346.88,-196.22"/>
</g>
<!-- n10&#45;&gt;n3 -->
<g id="edge15" class="edge">
<title>n10&#45;&gt;n3</title>
<path fill="none" stroke="#fed37f" d="M314.13,-396.78C308.55,-408.67 300.99,-424.77 294.85,-437.88"/>
<polygon fill="#fed37f" stroke="#fed37f" points="291.55,-436.66 290.48,-447.2 297.89,-439.63 291.55,-436.66"/>
<text text-anchor="middle" x="339" y="-418" font-family="Times New Roman,serif" font-size="10.00">wasAttributedTo</text>
</g>
<!-- ann10 -->
<g id="node20" class="node">
<title>ann10</title>
<polygon fill="none" stroke="gray" points="504,-314 376,-314 376,-278 510,-278 510,-308 504,-314"/>
<polyline fill="none" stroke="gray" points="504,-314 504,-308 "/>
<polyline fill="none" stroke="gray" points="510,-308 504,-308 "/>
<g id="a_node20_13"><a xlink:href="http://www.w3.org/ns/prov#type" xlink:title="&lt;TABLE&gt;">
<text text-anchor="start" x="386" y="-293" font-family="Times New Roman,serif" font-size="10.00">prov:type</text>
</a>
</g>
<text text-anchor="start" x="427" y="-293" font-family="Times New Roman,serif" font-size="10.00">task_type:Product</text>
</g>
<!-- ann10&#45;&gt;n10 -->
<g id="edge10" class="edge">
<title>ann10&#45;&gt;n10</title>
<path fill="none" stroke="gray" stroke-dasharray="5,2" d="M417.86,-314.11C405.05,-322.79 389.22,-333.5 375,-343 365.01,-349.68 353.92,-357.02 344.47,-363.24"/>
</g>
<!-- n11&#45;&gt;n2 -->
<g id="edge16" class="edge">
<title>n11&#45;&gt;n2</title>
<path fill="none" stroke="#fed37f" d="M815,-231.18C815,-242.86 815,-258.47 815,-271.33"/>
<polygon fill="#fed37f" stroke="#fed37f" points="811.5,-271.33 815,-281.33 818.5,-271.33 811.5,-271.33"/>
<text text-anchor="middle" x="849" y="-252" font-family="Times New Roman,serif" font-size="10.00">wasAttributedTo</text>
</g>
<!-- ann11 -->
<g id="node22" class="node">
<title>ann11</title>
<polygon fill="none" stroke="gray" points="880,-148 752,-148 752,-112 886,-112 886,-142 880,-148"/>
<polyline fill="none" stroke="gray" points="880,-148 880,-142 "/>
<polyline fill="none" stroke="gray" points="886,-142 880,-142 "/>
<g id="a_node22_14"><a xlink:href="http://www.w3.org/ns/prov#type" xlink:title="&lt;TABLE&gt;">
<text text-anchor="start" x="762" y="-127" font-family="Times New Roman,serif" font-size="10.00">prov:type</text>
</a>
</g>
<text text-anchor="start" x="803" y="-127" font-family="Times New Roman,serif" font-size="10.00">task_type:Product</text>
</g>
<!-- ann11&#45;&gt;n11 -->
<g id="edge11" class="edge">
<title>ann11&#45;&gt;n11</title>
<path fill="none" stroke="gray" stroke-dasharray="5,2" d="M818.15,-148.18C817.47,-161.92 816.53,-181.11 815.85,-194.85"/>
</g>
<!-- n12&#45;&gt;n4 -->
<g id="edge20" class="edge">
<title>n12&#45;&gt;n4</title>
<path fill="none" stroke="#8b0000" d="M611.66,-219.2C562.29,-228.88 455.16,-251.1 367,-278 364.39,-278.8 361.72,-279.66 359.04,-280.57"/>
<polygon fill="#8b0000" stroke="#8b0000" points="357.66,-277.35 349.41,-284 360,-283.95 357.66,-277.35"/>
<text text-anchor="middle" x="479.5" y="-252" font-family="Times New Roman,serif" font-size="10.00" fill="red">used</text>
</g>
<!-- b1 -->
<g id="node25" class="node">
<title>b1</title>
<ellipse fill="gray" stroke="gray" cx="725" cy="-296" rx="1.8" ry="1.8"/>
</g>
<!-- n12&#45;&gt;b1 -->
<g id="edge13" class="edge">
<title>n12&#45;&gt;b1</title>
<path fill="none" stroke="#fed37f" d="M663.46,-231.19C679.36,-243.13 699.86,-260.08 715,-278 719.6,-283.44 723.32,-291.26 724.56,-294.01"/>
<text text-anchor="middle" x="736" y="-252" font-family="Times New Roman,serif" font-size="10.00">wasAssociatedWith</text>
</g>
<!-- ann12 -->
<g id="node24" class="node">
<title>ann12</title>
<polygon fill="none" stroke="gray" points="727.5,-148 612.5,-148 612.5,-112 733.5,-112 733.5,-142 727.5,-148"/>
<polyline fill="none" stroke="gray" points="727.5,-148 727.5,-142 "/>
<polyline fill="none" stroke="gray" points="733.5,-142 727.5,-142 "/>
<g id="a_node24_15"><a xlink:href="http://www.w3.org/ns/prov#type" xlink:title="&lt;TABLE&gt;">
<text text-anchor="start" x="623" y="-127" font-family="Times New Roman,serif" font-size="10.00">prov:type</text>
</a>
</g>
<text text-anchor="start" x="664" y="-127" font-family="Times New Roman,serif" font-size="10.00">task_type:Task</text>
</g>
<!-- ann12&#45;&gt;n12 -->
<g id="edge12" class="edge">
<title>ann12&#45;&gt;n12</title>
<path fill="none" stroke="gray" stroke-dasharray="5,2" d="M690.01,-148.24C696.5,-156.96 701.23,-167.65 696,-177 689.54,-188.55 677.53,-196.76 666.19,-202.3"/>
</g>
<!-- b1&#45;&gt;n1 -->
<g id="edge14" class="edge">
<title>b1&#45;&gt;n1</title>
<path fill="none" stroke="#fed37f" d="M725.39,-297.91C727.8,-303.49 740.78,-333.53 750.14,-355.18"/>
<polygon fill="#fed37f" stroke="#fed37f" points="746.95,-356.63 754.13,-364.42 753.38,-353.85 746.95,-356.63"/>
</g>
</g>
</svg>
