<?xml version="1.0" encoding="UTF-8" standalone="no"?>
<!DOCTYPE svg PUBLIC "-//W3C//DTD SVG 1.1//EN"
 "http://www.w3.org/Graphics/SVG/1.1/DTD/svg11.dtd">
<!-- Generated by graphviz version 2.47.3 (0)
 -->
<!-- Title: G Pages: 1 -->
<svg width="1480pt" height="608pt"
 viewBox="0.00 0.00 1480.00 608.00" xmlns="http://www.w3.org/2000/svg" xmlns:xlink="http://www.w3.org/1999/xlink">
<g id="graph0" class="graph" transform="scale(1 1) rotate(0) translate(4 604)">
<title>G</title>
<polygon fill="white" stroke="transparent" points="-4,4 -4,-604 1476,-604 1476,4 -4,4"/>
<g id="clust1" class="cluster">
<title>cluster_c1</title>
<g id="a_clust1"><a xlink:href="https://bacardi.dlr.de/prov/entity/TaskBundle/1" xlink:title="task_bundle:1">
<polygon fill="none" stroke="black" points="163,-8 163,-592 1210,-592 1210,-8 163,-8"/>
<text text-anchor="middle" x="686.5" y="-15.8" font-family="Times New Roman,serif" font-size="14.00">task_bundle:1</text>
</a>
</g>
</g>
<g id="clust2" class="cluster">
<title>cluster_c2</title>
<g id="a_clust2"><a xlink:href="https://bacardi.dlr.de/prov/entity/TaskBundle/2" xlink:title="task_bundle:2">
<polygon fill="none" stroke="black" points="8,-268 8,-426 146,-426 146,-268 8,-268"/>
<text text-anchor="middle" x="77" y="-275.8" font-family="Times New Roman,serif" font-size="14.00">task_bundle:2</text>
</a>
</g>
</g>
<!-- n1 -->
<g id="node1" class="node">
<title>n1</title>
<g id="a_node1"><a xlink:href="https://bacardi.dlr.de/prov/agent/BACARDI" xlink:title="agent:BACARDI">
<polygon fill="#fed37f" stroke="black" points="740.67,-571.56 649,-584 557.33,-571.56 557.42,-551.44 740.58,-551.44 740.67,-571.56"/>
<text text-anchor="middle" x="649" y="-562.3" font-family="Times New Roman,serif" font-size="14.00">agent:BACARDI</text>
</a>
</g>
</g>
<!-- ann1 -->
<g id="node2" class="node">
<title>ann1</title>
<polygon fill="none" stroke="gray" points="1334,-501 1218,-501 1218,-465 1340,-465 1340,-495 1334,-501"/>
<polyline fill="none" stroke="gray" points="1334,-501 1334,-495 "/>
<polyline fill="none" stroke="gray" points="1340,-495 1334,-495 "/>
<g id="a_node2_0"><a xlink:href="http://www.w3.org/ns/prov#type" xlink:title="&lt;TABLE&gt;">
<text text-anchor="start" x="1228" y="-480" font-family="Times New Roman,serif" font-size="10.00">prov:type</text>
</a>
</g>
<text text-anchor="start" x="1269" y="-480" font-family="Times New Roman,serif" font-size="10.00">SoftwareAgent</text>
</g>
<!-- ann1&#45;&gt;n1 -->
<g id="edge1" class="edge">
<title>ann1&#45;&gt;n1</title>
<path fill="none" stroke="gray" stroke-dasharray="5,2" d="M1242.21,-501.1C1218.43,-511.33 1186.53,-523.56 1157,-530 1117.59,-538.59 876.2,-552.72 740.83,-560.13"/>
</g>
<!-- n2 -->
<g id="node3" class="node">
<title>n2</title>
<g id="a_node3"><a xlink:href="https://bacardi.dlr.de/prov/agent/GSOC" xlink:title="agent:GSOC">
<polygon fill="#fed37f" stroke="black" points="1095.89,-322.56 1025,-335 954.11,-322.56 954.17,-302.44 1095.83,-302.44 1095.89,-322.56"/>
<text text-anchor="middle" x="1025" y="-313.3" font-family="Times New Roman,serif" font-size="14.00">agent:GSOC</text>
</a>
</g>
</g>
<!-- ann2 -->
<g id="node4" class="node">
<title>ann2</title>
<polygon fill="none" stroke="gray" points="1326,-231 1218,-231 1218,-195 1332,-195 1332,-225 1326,-231"/>
<polyline fill="none" stroke="gray" points="1326,-231 1326,-225 "/>
<polyline fill="none" stroke="gray" points="1332,-225 1326,-225 "/>
<g id="a_node4_1"><a xlink:href="http://www.w3.org/ns/prov#type" xlink:title="&lt;TABLE&gt;">
<text text-anchor="start" x="1228" y="-210" font-family="Times New Roman,serif" font-size="10.00">prov:type</text>
</a>
</g>
<text text-anchor="start" x="1269" y="-210" font-family="Times New Roman,serif" font-size="10.00">Organization</text>
</g>
<!-- ann2&#45;&gt;n2 -->
<g id="edge2" class="edge">
<title>ann2&#45;&gt;n2</title>
<path fill="none" stroke="gray" stroke-dasharray="5,2" d="M1233.16,-231.07C1184.09,-251.09 1103.73,-283.88 1058.56,-302.31"/>
</g>
<!-- n3 -->
<g id="node5" class="node">
<title>n3</title>
<g id="a_node5"><a xlink:href="https://bacardi.dlr.de/prov/agent/SPACE-TRACK" xlink:title="agent:SPACE&#45;TRACK">
<polygon fill="#fed37f" stroke="black" points="1202.48,-571.56 1086,-584 969.52,-571.56 969.63,-551.44 1202.37,-551.44 1202.48,-571.56"/>
<text text-anchor="middle" x="1086" y="-562.3" font-family="Times New Roman,serif" font-size="14.00">agent:SPACE&#45;TRACK</text>
</a>
</g>
</g>
<!-- ann3 -->
<g id="node6" class="node">
<title>ann3</title>
<polygon fill="none" stroke="gray" points="1466,-501 1358,-501 1358,-465 1472,-465 1472,-495 1466,-501"/>
<polyline fill="none" stroke="gray" points="1466,-501 1466,-495 "/>
<polyline fill="none" stroke="gray" points="1472,-495 1466,-495 "/>
<g id="a_node6_2"><a xlink:href="http://www.w3.org/ns/prov#type" xlink:title="&lt;TABLE&gt;">
<text text-anchor="start" x="1368" y="-480" font-family="Times New Roman,serif" font-size="10.00">prov:type</text>
</a>
</g>
<text text-anchor="start" x="1409" y="-480" font-family="Times New Roman,serif" font-size="10.00">Organization</text>
</g>
<!-- ann3&#45;&gt;n3 -->
<g id="edge3" class="edge">
<title>ann3&#45;&gt;n3</title>
<path fill="none" stroke="gray" stroke-dasharray="5,2" d="M1375.53,-501.1C1351.95,-510.76 1321.19,-522.38 1293,-530 1259.93,-538.94 1223.23,-546.04 1190.04,-551.43"/>
</g>
<!-- n4 -->
<g id="node7" class="node">
<title>n4</title>
<g id="a_node7"><a xlink:href="https://bacardi.dlr.de/prov/entity/Input/1" xlink:title="input:1">
<ellipse fill="#fffc87" stroke="#808080" cx="688" cy="-400" rx="36.29" ry="18"/>
<text text-anchor="middle" x="688" y="-396.3" font-family="Times New Roman,serif" font-size="14.00">input:1</text>
</a>
</g>
</g>
<!-- n4&#45;&gt;n1 -->
<g id="edge21" class="edge">
<title>n4&#45;&gt;n1</title>
<path fill="none" stroke="#fed37f" d="M690.1,-418.05C692.53,-443.48 694.42,-492.4 679,-530 677.09,-534.66 674.3,-539.14 671.19,-543.26"/>
<polygon fill="#fed37f" stroke="#fed37f" points="668.32,-541.23 664.51,-551.12 673.66,-545.76 668.32,-541.23"/>
<text text-anchor="middle" x="725" y="-480.5" font-family="Times New Roman,serif" font-size="10.00">wasAttributedTo</text>
</g>
<!-- n6 -->
<g id="node11" class="node">
<title>n6</title>
<g id="a_node11"><a xlink:href="https://bacardi.dlr.de/prov/entity/TaskConfiguration/1" xlink:title="task_config:1">
<ellipse fill="#fffc87" stroke="#808080" cx="831" cy="-483" rx="60.39" ry="18"/>
<text text-anchor="middle" x="831" y="-479.3" font-family="Times New Roman,serif" font-size="14.00">task_config:1</text>
</a>
</g>
</g>
<!-- n4&#45;&gt;n6 -->
<g id="edge27" class="edge">
<title>n4&#45;&gt;n6</title>
<path fill="none" stroke="black" d="M710.98,-414.01C733.72,-426.9 768.86,-446.8 795.25,-461.75"/>
<polygon fill="black" stroke="black" points="793.76,-464.93 804.18,-466.81 797.21,-458.84 793.76,-464.93"/>
<text text-anchor="middle" x="792.5" y="-439" font-family="Times New Roman,serif" font-size="10.00">hadMember</text>
</g>
<!-- n8 -->
<g id="node15" class="node">
<title>n8</title>
<g id="a_node15"><a xlink:href="https://bacardi.dlr.de/prov/entity/DbEntry/1" xlink:title="db_entry:1">
<ellipse fill="#fffc87" stroke="#808080" cx="595" cy="-483" rx="50.09" ry="18"/>
<text text-anchor="middle" x="595" y="-479.3" font-family="Times New Roman,serif" font-size="14.00">db_entry:1</text>
</a>
</g>
</g>
<!-- n4&#45;&gt;n8 -->
<g id="edge26" class="edge">
<title>n4&#45;&gt;n8</title>
<path fill="none" stroke="black" d="M664.73,-413.86C651.25,-421.53 635.82,-430.77 630,-436 623.24,-442.07 616.88,-449.6 611.49,-456.8"/>
<polygon fill="black" stroke="black" points="608.6,-454.83 605.63,-465 614.29,-458.9 608.6,-454.83"/>
<text text-anchor="middle" x="654.5" y="-439" font-family="Times New Roman,serif" font-size="10.00">hadMember</text>
</g>
<!-- n10 -->
<g id="node19" class="node">
<title>n10</title>
<g id="a_node19"><a xlink:href="https://bacardi.dlr.de/prov/entity/Product/1" xlink:title="product:1">
<ellipse fill="#fffc87" stroke="#808080" cx="1084" cy="-483" rx="45.49" ry="18"/>
<text text-anchor="middle" x="1084" y="-479.3" font-family="Times New Roman,serif" font-size="14.00">product:1</text>
</a>
</g>
</g>
<!-- n4&#45;&gt;n10 -->
<g id="edge25" class="edge">
<title>n4&#45;&gt;n10</title>
<path fill="none" stroke="black" d="M709.23,-414.75C716.77,-419.02 725.51,-423.32 734,-426 771.11,-437.73 782.48,-430.42 821,-436 895.4,-446.77 981.09,-462.36 1033.91,-472.34"/>
<polygon fill="black" stroke="black" points="1033.54,-475.83 1044.02,-474.25 1034.84,-468.95 1033.54,-475.83"/>
<text text-anchor="middle" x="910.5" y="-439" font-family="Times New Roman,serif" font-size="10.00">hadMember</text>
</g>
<!-- ann4 -->
<g id="node8" class="node">
<title>ann4</title>
<polygon fill="none" stroke="gray" points="642,-335 524,-335 524,-299 648,-299 648,-329 642,-335"/>
<polyline fill="none" stroke="gray" points="642,-335 642,-329 "/>
<polyline fill="none" stroke="gray" points="648,-329 642,-329 "/>
<g id="a_node8_3"><a xlink:href="http://www.w3.org/ns/prov#type" xlink:title="&lt;TABLE&gt;">
<text text-anchor="start" x="534" y="-321" font-family="Times New Roman,serif" font-size="10.00">prov:type</text>
</a>
</g>
<g id="a_node8_4"><a xlink:href="http://www.w3.org/ns/prov#collection" xlink:title="&lt;TABLE&gt;">
<text text-anchor="start" x="575" y="-321" font-family="Times New Roman,serif" font-size="10.00">prov:collection</text>
</a>
</g>
<g id="a_node8_5"><a xlink:href="http://www.w3.org/ns/prov#type" xlink:title="&lt;TABLE&gt;">
<text text-anchor="start" x="534" y="-308" font-family="Times New Roman,serif" font-size="10.00">prov:type</text>
</a>
</g>
<text text-anchor="start" x="575" y="-308" font-family="Times New Roman,serif" font-size="10.00">task_type:Input</text>
</g>
<!-- ann4&#45;&gt;n4 -->
<g id="edge4" class="edge">
<title>ann4&#45;&gt;n4</title>
<path fill="none" stroke="gray" stroke-dasharray="5,2" d="M598.07,-335.06C605.2,-344.36 614.8,-355.63 625,-364 636.22,-373.21 650.21,-381.26 662.15,-387.31"/>
</g>
<!-- n5 -->
<g id="node9" class="node">
<title>n5</title>
<g id="a_node9"><a xlink:href="https://bacardi.dlr.de/prov/entity/Output/1" xlink:title="output:1">
<ellipse fill="#fffc87" stroke="#808080" cx="554" cy="-130" rx="40.89" ry="18"/>
<text text-anchor="middle" x="554" y="-126.3" font-family="Times New Roman,serif" font-size="14.00">output:1</text>
</a>
</g>
</g>
<!-- n5&#45;&gt;n1 -->
<g id="edge22" class="edge">
<title>n5&#45;&gt;n1</title>
<path fill="none" stroke="#fed37f" d="M523.57,-142.24C517.16,-144.35 510.4,-146.4 504,-148 383.28,-178.18 319.72,-110.92 228,-195 170.95,-247.3 171.79,-287.92 186,-364 198.27,-429.7 194.55,-460.87 248,-501 293.97,-535.51 444.08,-552.02 547.01,-559.47"/>
<polygon fill="#fed37f" stroke="#fed37f" points="546.91,-562.97 557.13,-560.18 547.4,-555.98 546.91,-562.97"/>
<text text-anchor="middle" x="220" y="-356" font-family="Times New Roman,serif" font-size="10.00">wasAttributedTo</text>
</g>
<!-- n7 -->
<g id="node13" class="node">
<title>n7</title>
<g id="a_node13"><a xlink:href="https://bacardi.dlr.de/prov/entity/TaskLog/1" xlink:title="task_log:1">
<ellipse fill="#fffc87" stroke="#808080" cx="448" cy="-213" rx="48.99" ry="18"/>
<text text-anchor="middle" x="448" y="-209.3" font-family="Times New Roman,serif" font-size="14.00">task_log:1</text>
</a>
</g>
</g>
<!-- n5&#45;&gt;n7 -->
<g id="edge28" class="edge">
<title>n5&#45;&gt;n7</title>
<path fill="none" stroke="black" d="M530.89,-144.91C521.13,-151.06 509.79,-158.57 500,-166 490.59,-173.15 480.77,-181.56 472.22,-189.23"/>
<polygon fill="black" stroke="black" points="469.82,-186.68 464.79,-196 474.54,-191.86 469.82,-186.68"/>
<text text-anchor="middle" x="524.5" y="-169" font-family="Times New Roman,serif" font-size="10.00">hadMember</text>
</g>
<!-- n9 -->
<g id="node17" class="node">
<title>n9</title>
<g id="a_node17"><a xlink:href="https://bacardi.dlr.de/prov/entity/DbEntry/2" xlink:title="db_entry:2">
<ellipse fill="#fffc87" stroke="#808080" cx="287" cy="-213" rx="50.09" ry="18"/>
<text text-anchor="middle" x="287" y="-209.3" font-family="Times New Roman,serif" font-size="14.00">db_entry:2</text>
</a>
</g>
</g>
<!-- n5&#45;&gt;n9 -->
<g id="edge29" class="edge">
<title>n5&#45;&gt;n9</title>
<path fill="none" stroke="black" d="M523.18,-141.89C516.86,-144 510.24,-146.14 504,-148 473.22,-157.18 464.89,-157.2 434,-166 399.84,-175.73 361.55,-187.75 332.61,-197.06"/>
<polygon fill="black" stroke="black" points="331.23,-193.83 322.79,-200.23 333.38,-200.49 331.23,-193.83"/>
<text text-anchor="middle" x="458.5" y="-169" font-family="Times New Roman,serif" font-size="10.00">hadMember</text>
</g>
<!-- n11 -->
<g id="node21" class="node">
<title>n11</title>
<g id="a_node21"><a xlink:href="https://bacardi.dlr.de/prov/entity/Product/2" xlink:title="product:2">
<ellipse fill="#fffc87" stroke="#808080" cx="826" cy="-213" rx="45.49" ry="18"/>
<text text-anchor="middle" x="826" y="-209.3" font-family="Times New Roman,serif" font-size="14.00">product:2</text>
</a>
</g>
</g>
<!-- n5&#45;&gt;n11 -->
<g id="edge30" class="edge">
<title>n5&#45;&gt;n11</title>
<path fill="none" stroke="black" d="M587.3,-140.56C630.11,-152.9 706.71,-175.14 772,-195 775.3,-196 778.7,-197.05 782.13,-198.11"/>
<polygon fill="black" stroke="black" points="781.16,-201.48 791.75,-201.11 783.24,-194.79 781.16,-201.48"/>
<text text-anchor="middle" x="730.5" y="-169" font-family="Times New Roman,serif" font-size="10.00">hadMember</text>
</g>
<!-- n12 -->
<g id="node23" class="node">
<title>n12</title>
<g id="a_node23"><a xlink:href="https://bacardi.dlr.de/prov/activity/Task/1" xlink:title="task:1">
<polygon fill="#9fb1fc" stroke="#0000ff" points="722,-335 668,-335 668,-299 722,-299 722,-335"/>
<text text-anchor="middle" x="695" y="-313.3" font-family="Times New Roman,serif" font-size="14.00">task:1</text>
</a>
</g>
</g>
<!-- n5&#45;&gt;n12 -->
<g id="edge24" class="edge">
<title>n5&#45;&gt;n12</title>
<path fill="none" stroke="darkgreen" d="M553.63,-148.06C553.42,-173.13 554.44,-218.32 564,-231 590.78,-266.52 621.32,-241.44 657,-268 665.14,-274.06 672.49,-282.27 678.51,-290.2"/>
<polygon fill="darkgreen" stroke="darkgreen" points="675.83,-292.46 684.5,-298.56 681.53,-288.39 675.83,-292.46"/>
<text text-anchor="middle" x="598.5" y="-210.5" font-family="Times New Roman,serif" font-size="10.00" fill="darkgreen">wasGeneratedBy</text>
</g>
<!-- ann5 -->
<g id="node10" class="node">
<title>ann5</title>
<polygon fill="none" stroke="gray" points="613,-75 489,-75 489,-39 619,-39 619,-69 613,-75"/>
<polyline fill="none" stroke="gray" points="613,-75 613,-69 "/>
<polyline fill="none" stroke="gray" points="619,-69 613,-69 "/>
<g id="a_node10_6"><a xlink:href="http://www.w3.org/ns/prov#type" xlink:title="&lt;TABLE&gt;">
<text text-anchor="start" x="499" y="-61" font-family="Times New Roman,serif" font-size="10.00">prov:type</text>
</a>
</g>
<g id="a_node10_7"><a xlink:href="http://www.w3.org/ns/prov#collection" xlink:title="&lt;TABLE&gt;">
<text text-anchor="start" x="540" y="-61" font-family="Times New Roman,serif" font-size="10.00">prov:collection</text>
</a>
</g>
<g id="a_node10_8"><a xlink:href="http://www.w3.org/ns/prov#type" xlink:title="&lt;TABLE&gt;">
<text text-anchor="start" x="499" y="-48" font-family="Times New Roman,serif" font-size="10.00">prov:type</text>
</a>
</g>
<text text-anchor="start" x="540" y="-48" font-family="Times New Roman,serif" font-size="10.00">task_type:Output</text>
</g>
<!-- ann5&#45;&gt;n5 -->
<g id="edge5" class="edge">
<title>ann5&#45;&gt;n5</title>
<path fill="none" stroke="gray" stroke-dasharray="5,2" d="M554,-75.19C554,-86.35 554,-100.84 554,-111.97"/>
</g>
<!-- n6&#45;&gt;n1 -->
<g id="edge17" class="edge">
<title>n6&#45;&gt;n1</title>
<path fill="none" stroke="#fed37f" d="M798.88,-498.29C768.23,-511.94 721.96,-532.53 688.95,-547.22"/>
<polygon fill="#fed37f" stroke="#fed37f" points="687.3,-544.12 679.59,-551.39 690.15,-550.52 687.3,-544.12"/>
<text text-anchor="middle" x="784" y="-522" font-family="Times New Roman,serif" font-size="10.00">wasAttributedTo</text>
</g>
<!-- ann6 -->
<g id="node12" class="node">
<title>ann6</title>
<polygon fill="none" stroke="gray" points="913.5,-418 742.5,-418 742.5,-382 919.5,-382 919.5,-412 913.5,-418"/>
<polyline fill="none" stroke="gray" points="913.5,-418 913.5,-412 "/>
<polyline fill="none" stroke="gray" points="919.5,-412 913.5,-412 "/>
<g id="a_node12_9"><a xlink:href="http://www.w3.org/ns/prov#type" xlink:title="&lt;TABLE&gt;">
<text text-anchor="start" x="753" y="-397" font-family="Times New Roman,serif" font-size="10.00">prov:type</text>
</a>
</g>
<text text-anchor="start" x="794" y="-397" font-family="Times New Roman,serif" font-size="10.00">task_type:TaskConfiguration</text>
</g>
<!-- ann6&#45;&gt;n6 -->
<g id="edge6" class="edge">
<title>ann6&#45;&gt;n6</title>
<path fill="none" stroke="gray" stroke-dasharray="5,2" d="M831,-418.18C831,-431.92 831,-451.11 831,-464.85"/>
</g>
<!-- n7&#45;&gt;n1 -->
<g id="edge20" class="edge">
<title>n7&#45;&gt;n1</title>
<path fill="none" stroke="#fed37f" d="M407.73,-223.2C393.2,-228.46 377.96,-236.58 368,-249 318.27,-311.04 298.9,-359.18 342,-426 387.66,-496.79 479.06,-531.92 550.32,-549.11"/>
<polygon fill="#fed37f" stroke="#fed37f" points="549.7,-552.56 560.23,-551.42 551.29,-545.74 549.7,-552.56"/>
<text text-anchor="middle" x="376" y="-397.5" font-family="Times New Roman,serif" font-size="10.00">wasAttributedTo</text>
</g>
<!-- n7&#45;&gt;n12 -->
<g id="edge34" class="edge">
<title>n7&#45;&gt;n12</title>
<path fill="none" stroke="darkgreen" d="M455.1,-231.09C460.35,-241.4 468.59,-253.7 480,-260 514.48,-279.02 621.95,-250.06 657,-268 666.65,-272.94 674.64,-281.56 680.77,-290.15"/>
<polygon fill="darkgreen" stroke="darkgreen" points="677.87,-292.12 686.26,-298.59 683.74,-288.3 677.87,-292.12"/>
<text text-anchor="middle" x="514.5" y="-252" font-family="Times New Roman,serif" font-size="10.00" fill="darkgreen">wasGeneratedBy</text>
</g>
<!-- ann7 -->
<g id="node14" class="node">
<title>ann7</title>
<polygon fill="none" stroke="gray" points="489.5,-148 358.5,-148 358.5,-112 495.5,-112 495.5,-142 489.5,-148"/>
<polyline fill="none" stroke="gray" points="489.5,-148 489.5,-142 "/>
<polyline fill="none" stroke="gray" points="495.5,-142 489.5,-142 "/>
<g id="a_node14_10"><a xlink:href="http://www.w3.org/ns/prov#type" xlink:title="&lt;TABLE&gt;">
<text text-anchor="start" x="369" y="-127" font-family="Times New Roman,serif" font-size="10.00">prov:type</text>
</a>
</g>
<text text-anchor="start" x="410" y="-127" font-family="Times New Roman,serif" font-size="10.00">task_type:TaskLog</text>
</g>
<!-- ann7&#45;&gt;n7 -->
<g id="edge7" class="edge">
<title>ann7&#45;&gt;n7</title>
<path fill="none" stroke="gray" stroke-dasharray="5,2" d="M431.45,-148.18C435.02,-161.92 439.99,-181.11 443.55,-194.85"/>
</g>
<!-- n8&#45;&gt;n1 -->
<g id="edge18" class="edge">
<title>n8&#45;&gt;n1</title>
<path fill="none" stroke="#fed37f" d="M598.79,-501.09C601.32,-510.17 605.25,-521.23 611,-530 614.34,-535.09 618.58,-539.95 623.01,-544.33"/>
<polygon fill="#fed37f" stroke="#fed37f" points="620.79,-547.04 630.52,-551.22 625.52,-541.88 620.79,-547.04"/>
<text text-anchor="middle" x="645" y="-522" font-family="Times New Roman,serif" font-size="10.00">wasAttributedTo</text>
</g>
<!-- ann8 -->
<g id="node16" class="node">
<title>ann8</title>
<polygon fill="none" stroke="gray" points="550.5,-418 419.5,-418 419.5,-382 556.5,-382 556.5,-412 550.5,-418"/>
<polyline fill="none" stroke="gray" points="550.5,-418 550.5,-412 "/>
<polyline fill="none" stroke="gray" points="556.5,-412 550.5,-412 "/>
<g id="a_node16_11"><a xlink:href="http://www.w3.org/ns/prov#type" xlink:title="&lt;TABLE&gt;">
<text text-anchor="start" x="430" y="-397" font-family="Times New Roman,serif" font-size="10.00">prov:type</text>
</a>
</g>
<text text-anchor="start" x="471" y="-397" font-family="Times New Roman,serif" font-size="10.00">task_type:DbEntry</text>
</g>
<!-- ann8&#45;&gt;n8 -->
<g id="edge8" class="edge">
<title>ann8&#45;&gt;n8</title>
<path fill="none" stroke="gray" stroke-dasharray="5,2" d="M510.69,-418.18C529.59,-432.48 556.26,-452.67 574.51,-466.49"/>
</g>
<!-- n9&#45;&gt;n1 -->
<g id="edge19" class="edge">
<title>n9&#45;&gt;n1</title>
<path fill="none" stroke="#fed37f" d="M285.6,-231.19C282.46,-266.01 273.86,-343.33 258,-364 246.87,-378.51 230.7,-366.5 221,-382 210.63,-398.58 210.68,-409.39 221,-426 281.52,-523.34 346.12,-500.94 457,-530 486.45,-537.72 518.87,-544.33 548.56,-549.66"/>
<polygon fill="#fed37f" stroke="#fed37f" points="548.06,-553.13 558.51,-551.42 549.28,-546.23 548.06,-553.13"/>
<text text-anchor="middle" x="255" y="-397.5" font-family="Times New Roman,serif" font-size="10.00">wasAttributedTo</text>
</g>
<!-- n9&#45;&gt;n12 -->
<g id="edge35" class="edge">
<title>n9&#45;&gt;n12</title>
<path fill="none" stroke="darkgreen" d="M315.95,-227.77C342.3,-240.04 379.38,-256.56 395,-260 423.44,-266.26 630.98,-254.92 657,-268 666.69,-272.87 674.69,-281.48 680.81,-290.07"/>
<polygon fill="darkgreen" stroke="darkgreen" points="677.91,-292.04 686.29,-298.53 683.78,-288.23 677.91,-292.04"/>
<text text-anchor="middle" x="429.5" y="-252" font-family="Times New Roman,serif" font-size="10.00" fill="darkgreen">wasGeneratedBy</text>
</g>
<!-- b2 -->
<g id="node26" class="node">
<title>b2</title>
<ellipse fill="gray" stroke="gray" cx="292" cy="-358.5" rx="1.8" ry="1.8"/>
</g>
<!-- n9&#45;&gt;b2 -->
<g id="edge37" class="edge">
<title>n9&#45;&gt;b2</title>
<path fill="none" stroke="black" d="M287.29,-231.04C287.46,-239.71 287.7,-250.42 288,-260 289.25,-299.96 291.6,-349.1 291.95,-356.54"/>
<text text-anchor="middle" x="323" y="-252" font-family="Times New Roman,serif" font-size="10.00">wasDerivedFrom</text>
</g>
<!-- ann9 -->
<g id="node18" class="node">
<title>ann9</title>
<polygon fill="none" stroke="gray" points="334.5,-148 203.5,-148 203.5,-112 340.5,-112 340.5,-142 334.5,-148"/>
<polyline fill="none" stroke="gray" points="334.5,-148 334.5,-142 "/>
<polyline fill="none" stroke="gray" points="340.5,-142 334.5,-142 "/>
<g id="a_node18_12"><a xlink:href="http://www.w3.org/ns/prov#type" xlink:title="&lt;TABLE&gt;">
<text text-anchor="start" x="214" y="-127" font-family="Times New Roman,serif" font-size="10.00">prov:type</text>
</a>
</g>
<text text-anchor="start" x="255" y="-127" font-family="Times New Roman,serif" font-size="10.00">task_type:DbEntry</text>
</g>
<!-- ann9&#45;&gt;n9 -->
<g id="edge9" class="edge">
<title>ann9&#45;&gt;n9</title>
<path fill="none" stroke="gray" stroke-dasharray="5,2" d="M275.18,-148.18C277.73,-161.92 281.28,-181.11 283.82,-194.85"/>
</g>
<!-- n10&#45;&gt;n3 -->
<g id="edge15" class="edge">
<title>n10&#45;&gt;n3</title>
<path fill="none" stroke="#fed37f" d="M1084.42,-501.18C1084.71,-512.86 1085.1,-528.47 1085.42,-541.33"/>
<polygon fill="#fed37f" stroke="#fed37f" points="1081.92,-541.42 1085.66,-551.33 1088.91,-541.25 1081.92,-541.42"/>
<text text-anchor="middle" x="1119" y="-522" font-family="Times New Roman,serif" font-size="10.00">wasAttributedTo</text>
</g>
<!-- ann10 -->
<g id="node20" class="node">
<title>ann10</title>
<polygon fill="none" stroke="gray" points="1141,-418 1013,-418 1013,-382 1147,-382 1147,-412 1141,-418"/>
<polyline fill="none" stroke="gray" points="1141,-418 1141,-412 "/>
<polyline fill="none" stroke="gray" points="1147,-412 1141,-412 "/>
<g id="a_node20_13"><a xlink:href="http://www.w3.org/ns/prov#type" xlink:title="&lt;TABLE&gt;">
<text text-anchor="start" x="1023" y="-397" font-family="Times New Roman,serif" font-size="10.00">prov:type</text>
</a>
</g>
<text text-anchor="start" x="1064" y="-397" font-family="Times New Roman,serif" font-size="10.00">task_type:Product</text>
</g>
<!-- ann10&#45;&gt;n10 -->
<g id="edge10" class="edge">
<title>ann10&#45;&gt;n10</title>
<path fill="none" stroke="gray" stroke-dasharray="5,2" d="M1080.85,-418.18C1081.53,-431.92 1082.47,-451.11 1083.15,-464.85"/>
</g>
<!-- n11&#45;&gt;n2 -->
<g id="edge16" class="edge">
<title>n11&#45;&gt;n2</title>
<path fill="none" stroke="#fed37f" d="M852.84,-227.76C888.1,-245.83 950.13,-277.62 989.31,-297.71"/>
<polygon fill="#fed37f" stroke="#fed37f" points="987.77,-300.85 998.27,-302.3 990.97,-294.62 987.77,-300.85"/>
<text text-anchor="middle" x="947" y="-252" font-family="Times New Roman,serif" font-size="10.00">wasAttributedTo</text>
</g>
<!-- n11&#45;&gt;n12 -->
<g id="edge36" class="edge">
<title>n11&#45;&gt;n12</title>
<path fill="none" stroke="darkgreen" d="M806.39,-229.27C784.84,-246.05 749.98,-273.19 725,-292.64"/>
<polygon fill="darkgreen" stroke="darkgreen" points="722.68,-290.02 716.94,-298.92 726.98,-295.54 722.68,-290.02"/>
<text text-anchor="middle" x="813.5" y="-252" font-family="Times New Roman,serif" font-size="10.00" fill="darkgreen">wasGeneratedBy</text>
</g>
<!-- ann11 -->
<g id="node22" class="node">
<title>ann11</title>
<polygon fill="none" stroke="gray" points="887,-148 759,-148 759,-112 893,-112 893,-142 887,-148"/>
<polyline fill="none" stroke="gray" points="887,-148 887,-142 "/>
<polyline fill="none" stroke="gray" points="893,-142 887,-142 "/>
<g id="a_node22_14"><a xlink:href="http://www.w3.org/ns/prov#type" xlink:title="&lt;TABLE&gt;">
<text text-anchor="start" x="769" y="-127" font-family="Times New Roman,serif" font-size="10.00">prov:type</text>
</a>
</g>
<text text-anchor="start" x="810" y="-127" font-family="Times New Roman,serif" font-size="10.00">task_type:Product</text>
</g>
<!-- ann11&#45;&gt;n11 -->
<g id="edge11" class="edge">
<title>ann11&#45;&gt;n11</title>
<path fill="none" stroke="gray" stroke-dasharray="5,2" d="M826,-148.18C826,-161.92 826,-181.11 826,-194.85"/>
</g>
<!-- n12&#45;&gt;n4 -->
<g id="edge23" class="edge">
<title>n12&#45;&gt;n4</title>
<path fill="none" stroke="#8b0000" d="M693.52,-335.18C692.6,-345.81 691.4,-359.69 690.35,-371.8"/>
<polygon fill="#8b0000" stroke="#8b0000" points="686.86,-371.58 689.48,-381.85 693.83,-372.19 686.86,-371.58"/>
<text text-anchor="middle" x="700.5" y="-356" font-family="Times New Roman,serif" font-size="10.00" fill="red">used</text>
</g>
<!-- n12&#45;&gt;n6 -->
<g id="edge32" class="edge">
<title>n12&#45;&gt;n6</title>
<path fill="none" stroke="#8b0000" d="M722.08,-321.77C777.49,-330.02 900.92,-351.46 929,-382 948.78,-403.52 956.19,-423.36 939,-447 935.39,-451.97 909.72,-460.39 884.31,-467.72"/>
<polygon fill="#8b0000" stroke="#8b0000" points="883.29,-464.37 874.63,-470.47 885.2,-471.11 883.29,-464.37"/>
<text text-anchor="middle" x="957.5" y="-397.5" font-family="Times New Roman,serif" font-size="10.00" fill="red">used</text>
</g>
<!-- n12&#45;&gt;n8 -->
<g id="edge31" class="edge">
<title>n12&#45;&gt;n8</title>
<path fill="none" stroke="#8b0000" d="M667.64,-330.19C651.2,-337.8 632.12,-347.22 625,-353 612.23,-363.37 607.95,-366.66 602,-382 592.94,-405.35 591.85,-434.05 592.64,-454.7"/>
<polygon fill="#8b0000" stroke="#8b0000" points="589.15,-454.91 593.19,-464.7 596.13,-454.53 589.15,-454.91"/>
<text text-anchor="middle" x="611.5" y="-397.5" font-family="Times New Roman,serif" font-size="10.00" fill="red">used</text>
</g>
<!-- n12&#45;&gt;n10 -->
<g id="edge33" class="edge">
<title>n12&#45;&gt;n10</title>
<path fill="none" stroke="#8b0000" d="M722,-319.57C816.73,-325.35 1129.63,-346.99 1156,-382 1167.77,-397.62 1164.59,-408.43 1156,-426 1148.39,-441.55 1134.16,-454.03 1120.34,-463.23"/>
<polygon fill="#8b0000" stroke="#8b0000" points="1118.48,-460.26 1111.85,-468.53 1122.18,-466.2 1118.48,-460.26"/>
<text text-anchor="middle" x="1172.5" y="-397.5" font-family="Times New Roman,serif" font-size="10.00" fill="red">used</text>
</g>
<!-- b1 -->
<g id="node25" class="node">
<title>b1</title>
<ellipse fill="gray" stroke="gray" cx="979" cy="-441.5" rx="1.8" ry="1.8"/>
</g>
<!-- n12&#45;&gt;b1 -->
<g id="edge13" class="edge">
<title>n12&#45;&gt;b1</title>
<path fill="none" stroke="#fed37f" d="M722.45,-318.68C782.22,-320.62 921.96,-327.81 961,-353 991.75,-372.85 981.1,-430.46 979.25,-439.34"/>
<text text-anchor="middle" x="1011" y="-356" font-family="Times New Roman,serif" font-size="10.00">wasAssociatedWith</text>
</g>
<!-- b3 -->
<g id="node27" class="node">
<title>b3</title>
<ellipse fill="gray" stroke="gray" cx="632" cy="-400" rx="1.8" ry="1.8"/>
</g>
<!-- n12&#45;&gt;b3 -->
<g id="edge39" class="edge">
<title>n12&#45;&gt;b3</title>
<path fill="none" stroke="black" d="M667.88,-330.33C653.55,-337.44 638.09,-346.27 634,-353 624.69,-368.3 630.14,-392.04 631.65,-397.74"/>
<text text-anchor="middle" x="660.5" y="-356" font-family="Times New Roman,serif" font-size="10.00">wasEndedBy</text>
</g>
<!-- n13 -->
<g id="node28" class="node">
<title>n13</title>
<g id="a_node28"><a xlink:href="https://bacardi.dlr.de/prov/activity/Task/0" xlink:title="task:0">
<polygon fill="#9fb1fc" stroke="#0000ff" points="116,-418 62,-418 62,-382 116,-382 116,-418"/>
<text text-anchor="middle" x="89" y="-396.3" font-family="Times New Roman,serif" font-size="14.00">task:0</text>
</a>
</g>
</g>
<!-- n12&#45;&gt;n13 -->
<g id="edge42" class="edge">
<title>n12&#45;&gt;n13</title>
<path fill="none" stroke="black" d="M667.62,-331.73C664.12,-333.05 660.52,-334.19 657,-335 626.94,-341.93 126.3,-333.99 102,-353 96.2,-357.54 92.86,-364.45 90.97,-371.55"/>
<polygon fill="black" stroke="black" points="87.45,-371.37 89.12,-381.83 94.34,-372.61 87.45,-371.37"/>
<text text-anchor="middle" x="134.5" y="-356" font-family="Times New Roman,serif" font-size="10.00">wasInformedBy</text>
</g>
<!-- ann12 -->
<g id="node24" class="node">
<title>ann12</title>
<polygon fill="none" stroke="gray" points="756.5,-231 641.5,-231 641.5,-195 762.5,-195 762.5,-225 756.5,-231"/>
<polyline fill="none" stroke="gray" points="756.5,-231 756.5,-225 "/>
<polyline fill="none" stroke="gray" points="762.5,-225 756.5,-225 "/>
<g id="a_node24_15"><a xlink:href="http://www.w3.org/ns/prov#type" xlink:title="&lt;TABLE&gt;">
<text text-anchor="start" x="652" y="-210" font-family="Times New Roman,serif" font-size="10.00">prov:type</text>
</a>
</g>
<text text-anchor="start" x="693" y="-210" font-family="Times New Roman,serif" font-size="10.00">task_type:Task</text>
</g>
<!-- ann12&#45;&gt;n12 -->
<g id="edge12" class="edge">
<title>ann12&#45;&gt;n12</title>
<path fill="none" stroke="gray" stroke-dasharray="5,2" d="M700.81,-231.3C699.52,-250.17 697.46,-280.18 696.17,-298.95"/>
</g>
<!-- b1&#45;&gt;n1 -->
<g id="edge14" class="edge">
<title>b1&#45;&gt;n1</title>
<path fill="none" stroke="#fed37f" d="M978.28,-443.16C972.67,-448.28 935.41,-481.81 900,-501 854.05,-525.91 798.08,-541.39 750.66,-550.87"/>
<polygon fill="#fed37f" stroke="#fed37f" points="749.83,-547.47 740.68,-552.81 751.17,-554.34 749.83,-547.47"/>
</g>
<!-- b2&#45;&gt;n8 -->
<g id="edge38" class="edge">
<title>b2&#45;&gt;n8</title>
<path fill="none" stroke="black" d="M291.95,-360.3C291.59,-366.49 290.14,-406.82 311,-426 343.24,-455.65 463.23,-470.88 536.54,-477.59"/>
<polygon fill="black" stroke="black" points="536.29,-481.08 546.56,-478.48 536.91,-474.11 536.29,-481.08"/>
</g>
<!-- b3&#45;&gt;n8 -->
<g id="edge40" class="edge">
<title>b3&#45;&gt;n8</title>
<path fill="none" stroke="black" d="M631.43,-401.98C629.42,-405.38 622.49,-416.95 616,-426 612.68,-430.63 610.6,-430.94 608,-436 604.96,-441.91 602.55,-448.62 600.67,-455.06"/>
<polygon fill="black" stroke="black" points="597.27,-454.23 598.15,-464.78 604.05,-455.98 597.27,-454.23"/>
</g>
<!-- ann13 -->
<g id="node29" class="node">
<title>ann13</title>
<polygon fill="none" stroke="gray" points="131.5,-335 16.5,-335 16.5,-299 137.5,-299 137.5,-329 131.5,-335"/>
<polyline fill="none" stroke="gray" points="131.5,-335 131.5,-329 "/>
<polyline fill="none" stroke="gray" points="137.5,-329 131.5,-329 "/>
<g id="a_node29_16"><a xlink:href="http://www.w3.org/ns/prov#type" xlink:title="&lt;TABLE&gt;">
<text text-anchor="start" x="27" y="-314" font-family="Times New Roman,serif" font-size="10.00">prov:type</text>
</a>
</g>
<text text-anchor="start" x="68" y="-314" font-family="Times New Roman,serif" font-size="10.00">task_type:Task</text>
</g>
<!-- ann13&#45;&gt;n13 -->
<g id="edge41" class="edge">
<title>ann13&#45;&gt;n13</title>
<path fill="none" stroke="gray" stroke-dasharray="5,2" d="M78.49,-335.09C79.34,-343.77 80.53,-354.47 82,-364 82.91,-369.88 84.12,-376.27 85.28,-381.96"/>
</g>
</g>
</svg>
