<?xml version="1.0" encoding="UTF-8" standalone="no"?>
<!DOCTYPE svg PUBLIC "-//W3C//DTD SVG 1.1//EN"
 "http://www.w3.org/Graphics/SVG/1.1/DTD/svg11.dtd">
<!-- Generated by graphviz version 2.47.3 (0)
 -->
<!-- Title: G Pages: 1 -->
<svg width="1392pt" height="691pt"
 viewBox="0.00 0.00 1392.00 691.00" xmlns="http://www.w3.org/2000/svg" xmlns:xlink="http://www.w3.org/1999/xlink">
<g id="graph0" class="graph" transform="scale(1 1) rotate(0) translate(4 687)">
<title>G</title>
<polygon fill="white" stroke="transparent" points="-4,4 -4,-687 1388,-687 1388,4 -4,4"/>
<g id="clust1" class="cluster">
<title>cluster_c1</title>
<g id="a_clust1"><a xlink:href="https://bacardi.dlr.de/prov/entity/TaskBundle/1" xlink:title="task_bundle:1">
<polygon fill="none" stroke="black" points="8,-185 8,-675 710,-675 710,-185 8,-185"/>
<text text-anchor="middle" x="359" y="-192.8" font-family="Times New Roman,serif" font-size="14.00">task_bundle:1</text>
</a>
</g>
</g>
<g id="clust2" class="cluster">
<title>cluster_c2</title>
<g id="a_clust2"><a xlink:href="https://bacardi.dlr.de/prov/entity/TaskBundle/2" xlink:title="task_bundle:2">
<polygon fill="none" stroke="black" points="718,-8 718,-426 1262,-426 1262,-8 718,-8"/>
<text text-anchor="middle" x="990" y="-15.8" font-family="Times New Roman,serif" font-size="14.00">task_bundle:2</text>
</a>
</g>
</g>
<!-- n1 -->
<g id="node1" class="node">
<title>n1</title>
<g id="a_node1"><a xlink:href="https://bacardi.dlr.de/prov/agent/BACARDI" xlink:title="agent:BACARDI">
<polygon fill="#fed37f" stroke="black" points="701.67,-571.56 610,-584 518.33,-571.56 518.42,-551.44 701.58,-551.44 701.67,-571.56"/>
<text text-anchor="middle" x="610" y="-562.3" font-family="Times New Roman,serif" font-size="14.00">agent:BACARDI</text>
</a>
</g>
</g>
<!-- ann1 -->
<g id="node2" class="node">
<title>ann1</title>
<polygon fill="none" stroke="gray" points="834,-501 718,-501 718,-465 840,-465 840,-495 834,-501"/>
<polyline fill="none" stroke="gray" points="834,-501 834,-495 "/>
<polyline fill="none" stroke="gray" points="840,-495 834,-495 "/>
<g id="a_node2_0"><a xlink:href="http://www.w3.org/ns/prov#type" xlink:title="&lt;TABLE&gt;">
<text text-anchor="start" x="728" y="-480" font-family="Times New Roman,serif" font-size="10.00">prov:type</text>
</a>
</g>
<text text-anchor="start" x="769" y="-480" font-family="Times New Roman,serif" font-size="10.00">SoftwareAgent</text>
</g>
<!-- ann1&#45;&gt;n1 -->
<g id="edge1" class="edge">
<title>ann1&#45;&gt;n1</title>
<path fill="none" stroke="gray" stroke-dasharray="5,2" d="M743.16,-501.18C711.96,-516.13 667.34,-537.52 638.51,-551.33"/>
</g>
<!-- n2 -->
<g id="node3" class="node">
<title>n2</title>
<g id="a_node3"><a xlink:href="https://bacardi.dlr.de/prov/agent/GSOC" xlink:title="agent:GSOC">
<polygon fill="#fed37f" stroke="black" points="1253.89,-322.56 1183,-335 1112.11,-322.56 1112.17,-302.44 1253.83,-302.44 1253.89,-322.56"/>
<text text-anchor="middle" x="1183" y="-313.3" font-family="Times New Roman,serif" font-size="14.00">agent:GSOC</text>
</a>
</g>
</g>
<!-- ann2 -->
<g id="node4" class="node">
<title>ann2</title>
<polygon fill="none" stroke="gray" points="1378,-252 1270,-252 1270,-216 1384,-216 1384,-246 1378,-252"/>
<polyline fill="none" stroke="gray" points="1378,-252 1378,-246 "/>
<polyline fill="none" stroke="gray" points="1384,-246 1378,-246 "/>
<g id="a_node4_1"><a xlink:href="http://www.w3.org/ns/prov#type" xlink:title="&lt;TABLE&gt;">
<text text-anchor="start" x="1280" y="-231" font-family="Times New Roman,serif" font-size="10.00">prov:type</text>
</a>
</g>
<text text-anchor="start" x="1321" y="-231" font-family="Times New Roman,serif" font-size="10.00">Organization</text>
</g>
<!-- ann2&#45;&gt;n2 -->
<g id="edge2" class="edge">
<title>ann2&#45;&gt;n2</title>
<path fill="none" stroke="gray" stroke-dasharray="5,2" d="M1297.45,-252.19C1282.39,-260.9 1263.77,-271.6 1247,-281 1234.3,-288.12 1220.09,-295.91 1208.3,-302.33"/>
</g>
<!-- n3 -->
<g id="node5" class="node">
<title>n3</title>
<g id="a_node5"><a xlink:href="https://bacardi.dlr.de/prov/agent/SPACE-TRACK" xlink:title="agent:SPACE&#45;TRACK">
<polygon fill="#fed37f" stroke="black" points="567.48,-654.56 451,-667 334.52,-654.56 334.63,-634.44 567.37,-634.44 567.48,-654.56"/>
<text text-anchor="middle" x="451" y="-645.3" font-family="Times New Roman,serif" font-size="14.00">agent:SPACE&#45;TRACK</text>
</a>
</g>
</g>
<!-- ann3 -->
<g id="node6" class="node">
<title>ann3</title>
<polygon fill="none" stroke="gray" points="828,-584 720,-584 720,-548 834,-548 834,-578 828,-584"/>
<polyline fill="none" stroke="gray" points="828,-584 828,-578 "/>
<polyline fill="none" stroke="gray" points="834,-578 828,-578 "/>
<g id="a_node6_2"><a xlink:href="http://www.w3.org/ns/prov#type" xlink:title="&lt;TABLE&gt;">
<text text-anchor="start" x="730" y="-563" font-family="Times New Roman,serif" font-size="10.00">prov:type</text>
</a>
</g>
<text text-anchor="start" x="771" y="-563" font-family="Times New Roman,serif" font-size="10.00">Organization</text>
</g>
<!-- ann3&#45;&gt;n3 -->
<g id="edge3" class="edge">
<title>ann3&#45;&gt;n3</title>
<path fill="none" stroke="gray" stroke-dasharray="5,2" d="M719.67,-582.53C717.76,-583.03 715.87,-583.52 714,-584 643.45,-602.1 561.92,-621.74 508.56,-634.43"/>
</g>
<!-- n4 -->
<g id="node7" class="node">
<title>n4</title>
<g id="a_node7"><a xlink:href="https://bacardi.dlr.de/prov/entity/Input/1" xlink:title="input:1">
<ellipse fill="#fffc87" stroke="#808080" cx="369" cy="-483" rx="36.29" ry="18"/>
<text text-anchor="middle" x="369" y="-479.3" font-family="Times New Roman,serif" font-size="14.00">input:1</text>
</a>
</g>
</g>
<!-- n6 -->
<g id="node11" class="node">
<title>n6</title>
<g id="a_node11"><a xlink:href="https://bacardi.dlr.de/prov/entity/TaskConfiguration/1" xlink:title="task_config:1">
<ellipse fill="#fffc87" stroke="#808080" cx="440" cy="-566" rx="60.39" ry="18"/>
<text text-anchor="middle" x="440" y="-562.3" font-family="Times New Roman,serif" font-size="14.00">task_config:1</text>
</a>
</g>
</g>
<!-- n4&#45;&gt;n6 -->
<g id="edge16" class="edge">
<title>n4&#45;&gt;n6</title>
<path fill="none" stroke="black" d="M383.03,-500C393.2,-511.61 407.14,-527.52 418.69,-540.69"/>
<polygon fill="black" stroke="black" points="416.29,-543.26 425.51,-548.47 421.55,-538.65 416.29,-543.26"/>
<text text-anchor="middle" x="432.5" y="-522" font-family="Times New Roman,serif" font-size="10.00">hadMember</text>
</g>
<!-- n10 -->
<g id="node19" class="node">
<title>n10</title>
<g id="a_node19"><a xlink:href="https://bacardi.dlr.de/prov/entity/Product/1" xlink:title="product:1">
<ellipse fill="#fffc87" stroke="#808080" cx="316" cy="-566" rx="45.49" ry="18"/>
<text text-anchor="middle" x="316" y="-562.3" font-family="Times New Roman,serif" font-size="14.00">product:1</text>
</a>
</g>
</g>
<!-- n4&#45;&gt;n10 -->
<g id="edge15" class="edge">
<title>n4&#45;&gt;n10</title>
<path fill="none" stroke="black" d="M358.27,-500.39C350.85,-511.73 340.84,-527.04 332.41,-539.91"/>
<polygon fill="black" stroke="black" points="329.44,-538.07 326.89,-548.35 335.3,-541.9 329.44,-538.07"/>
<text text-anchor="middle" x="369.5" y="-522" font-family="Times New Roman,serif" font-size="10.00">hadMember</text>
</g>
<!-- ann4 -->
<g id="node8" class="node">
<title>ann4</title>
<polygon fill="none" stroke="gray" points="425,-418 307,-418 307,-382 431,-382 431,-412 425,-418"/>
<polyline fill="none" stroke="gray" points="425,-418 425,-412 "/>
<polyline fill="none" stroke="gray" points="431,-412 425,-412 "/>
<g id="a_node8_3"><a xlink:href="http://www.w3.org/ns/prov#type" xlink:title="&lt;TABLE&gt;">
<text text-anchor="start" x="317" y="-404" font-family="Times New Roman,serif" font-size="10.00">prov:type</text>
</a>
</g>
<g id="a_node8_4"><a xlink:href="http://www.w3.org/ns/prov#collection" xlink:title="&lt;TABLE&gt;">
<text text-anchor="start" x="358" y="-404" font-family="Times New Roman,serif" font-size="10.00">prov:collection</text>
</a>
</g>
<g id="a_node8_5"><a xlink:href="http://www.w3.org/ns/prov#type" xlink:title="&lt;TABLE&gt;">
<text text-anchor="start" x="317" y="-391" font-family="Times New Roman,serif" font-size="10.00">prov:type</text>
</a>
</g>
<text text-anchor="start" x="358" y="-391" font-family="Times New Roman,serif" font-size="10.00">task_type:Input</text>
</g>
<!-- ann4&#45;&gt;n4 -->
<g id="edge4" class="edge">
<title>ann4&#45;&gt;n4</title>
<path fill="none" stroke="gray" stroke-dasharray="5,2" d="M369,-418.18C369,-431.92 369,-451.11 369,-464.85"/>
</g>
<!-- n5 -->
<g id="node9" class="node">
<title>n5</title>
<g id="a_node9"><a xlink:href="https://bacardi.dlr.de/prov/entity/Output/1" xlink:title="output:1">
<ellipse fill="#fffc87" stroke="#808080" cx="367" cy="-317" rx="40.89" ry="18"/>
<text text-anchor="middle" x="367" y="-313.3" font-family="Times New Roman,serif" font-size="14.00">output:1</text>
</a>
</g>
</g>
<!-- n7 -->
<g id="node13" class="node">
<title>n7</title>
<g id="a_node13"><a xlink:href="https://bacardi.dlr.de/prov/entity/TaskLog/1" xlink:title="task_log:1">
<ellipse fill="#fffc87" stroke="#808080" cx="240" cy="-400" rx="48.99" ry="18"/>
<text text-anchor="middle" x="240" y="-396.3" font-family="Times New Roman,serif" font-size="14.00">task_log:1</text>
</a>
</g>
</g>
<!-- n5&#45;&gt;n7 -->
<g id="edge20" class="edge">
<title>n5&#45;&gt;n7</title>
<path fill="none" stroke="black" d="M354.86,-334.6C347.17,-344.2 336.52,-355.94 325,-364 313.22,-372.25 299.2,-379.03 285.97,-384.35"/>
<polygon fill="black" stroke="black" points="284.61,-381.12 276.53,-387.97 287.12,-387.66 284.61,-381.12"/>
<text text-anchor="middle" x="362.5" y="-356" font-family="Times New Roman,serif" font-size="10.00">hadMember</text>
</g>
<!-- n8 -->
<g id="node15" class="node">
<title>n8</title>
<g id="a_node15"><a xlink:href="https://bacardi.dlr.de/prov/entity/DbEntry/1" xlink:title="db_entry:1">
<ellipse fill="#fffc87" stroke="#808080" cx="499" cy="-400" rx="50.09" ry="18"/>
<text text-anchor="middle" x="499" y="-396.3" font-family="Times New Roman,serif" font-size="14.00">db_entry:1</text>
</a>
</g>
</g>
<!-- n5&#45;&gt;n8 -->
<g id="edge18" class="edge">
<title>n5&#45;&gt;n8</title>
<path fill="none" stroke="black" d="M389.99,-332.11C410.95,-344.97 442.16,-364.12 465.82,-378.64"/>
<polygon fill="black" stroke="black" points="464.13,-381.71 474.48,-383.95 467.79,-375.74 464.13,-381.71"/>
<text text-anchor="middle" x="464.5" y="-356" font-family="Times New Roman,serif" font-size="10.00">hadMember</text>
</g>
<!-- n9 -->
<g id="node17" class="node">
<title>n9</title>
<g id="a_node17"><a xlink:href="https://bacardi.dlr.de/prov/entity/DbEntry/2" xlink:title="db_entry:2">
<ellipse fill="#fffc87" stroke="#808080" cx="104" cy="-400" rx="50.09" ry="18"/>
<text text-anchor="middle" x="104" y="-396.3" font-family="Times New Roman,serif" font-size="14.00">db_entry:2</text>
</a>
</g>
</g>
<!-- n5&#45;&gt;n9 -->
<g id="edge19" class="edge">
<title>n5&#45;&gt;n9</title>
<path fill="none" stroke="black" d="M336.22,-328.91C330.2,-330.98 323.91,-333.09 318,-335 261.17,-353.35 195.27,-372.78 151.78,-385.35"/>
<polygon fill="black" stroke="black" points="150.68,-382.03 142.04,-388.16 152.62,-388.76 150.68,-382.03"/>
<text text-anchor="middle" x="283.5" y="-356" font-family="Times New Roman,serif" font-size="10.00">hadMember</text>
</g>
<!-- n11 -->
<g id="node21" class="node">
<title>n11</title>
<g id="a_node21"><a xlink:href="https://bacardi.dlr.de/prov/activity/Task/1" xlink:title="task:1">
<polygon fill="#9fb1fc" stroke="#0000ff" points="647,-418 593,-418 593,-382 647,-382 647,-418"/>
<text text-anchor="middle" x="620" y="-396.3" font-family="Times New Roman,serif" font-size="14.00">task:1</text>
</a>
</g>
</g>
<!-- n5&#45;&gt;n11 -->
<g id="edge21" class="edge">
<title>n5&#45;&gt;n11</title>
<path fill="none" stroke="darkgreen" d="M397.79,-328.98C404.11,-331.09 410.74,-333.2 417,-335 450.36,-344.6 459.74,-343.07 493,-353 523.75,-362.18 557.91,-374.69 583.05,-384.34"/>
<polygon fill="darkgreen" stroke="darkgreen" points="581.97,-387.68 592.56,-388.02 584.5,-381.15 581.97,-387.68"/>
<text text-anchor="middle" x="558.5" y="-356" font-family="Times New Roman,serif" font-size="10.00" fill="darkgreen">wasGeneratedBy</text>
</g>
<!-- ann5 -->
<g id="node10" class="node">
<title>ann5</title>
<polygon fill="none" stroke="gray" points="426,-252 302,-252 302,-216 432,-216 432,-246 426,-252"/>
<polyline fill="none" stroke="gray" points="426,-252 426,-246 "/>
<polyline fill="none" stroke="gray" points="432,-246 426,-246 "/>
<g id="a_node10_6"><a xlink:href="http://www.w3.org/ns/prov#type" xlink:title="&lt;TABLE&gt;">
<text text-anchor="start" x="312" y="-238" font-family="Times New Roman,serif" font-size="10.00">prov:type</text>
</a>
</g>
<g id="a_node10_7"><a xlink:href="http://www.w3.org/ns/prov#collection" xlink:title="&lt;TABLE&gt;">
<text text-anchor="start" x="353" y="-238" font-family="Times New Roman,serif" font-size="10.00">prov:collection</text>
</a>
</g>
<g id="a_node10_8"><a xlink:href="http://www.w3.org/ns/prov#type" xlink:title="&lt;TABLE&gt;">
<text text-anchor="start" x="312" y="-225" font-family="Times New Roman,serif" font-size="10.00">prov:type</text>
</a>
</g>
<text text-anchor="start" x="353" y="-225" font-family="Times New Roman,serif" font-size="10.00">task_type:Output</text>
</g>
<!-- ann5&#45;&gt;n5 -->
<g id="edge5" class="edge">
<title>ann5&#45;&gt;n5</title>
<path fill="none" stroke="gray" stroke-dasharray="5,2" d="M367,-252.18C367,-265.92 367,-285.11 367,-298.85"/>
</g>
<!-- ann6 -->
<g id="node12" class="node">
<title>ann6</title>
<polygon fill="none" stroke="gray" points="594.5,-501 423.5,-501 423.5,-465 600.5,-465 600.5,-495 594.5,-501"/>
<polyline fill="none" stroke="gray" points="594.5,-501 594.5,-495 "/>
<polyline fill="none" stroke="gray" points="600.5,-495 594.5,-495 "/>
<g id="a_node12_9"><a xlink:href="http://www.w3.org/ns/prov#type" xlink:title="&lt;TABLE&gt;">
<text text-anchor="start" x="434" y="-480" font-family="Times New Roman,serif" font-size="10.00">prov:type</text>
</a>
</g>
<text text-anchor="start" x="475" y="-480" font-family="Times New Roman,serif" font-size="10.00">task_type:TaskConfiguration</text>
</g>
<!-- ann6&#45;&gt;n6 -->
<g id="edge6" class="edge">
<title>ann6&#45;&gt;n6</title>
<path fill="none" stroke="gray" stroke-dasharray="5,2" d="M496.73,-501.18C484.35,-515.11 467,-534.63 454.75,-548.4"/>
</g>
<!-- ann7 -->
<g id="node14" class="node">
<title>ann7</title>
<polygon fill="none" stroke="gray" points="302.5,-335 171.5,-335 171.5,-299 308.5,-299 308.5,-329 302.5,-335"/>
<polyline fill="none" stroke="gray" points="302.5,-335 302.5,-329 "/>
<polyline fill="none" stroke="gray" points="308.5,-329 302.5,-329 "/>
<g id="a_node14_10"><a xlink:href="http://www.w3.org/ns/prov#type" xlink:title="&lt;TABLE&gt;">
<text text-anchor="start" x="182" y="-314" font-family="Times New Roman,serif" font-size="10.00">prov:type</text>
</a>
</g>
<text text-anchor="start" x="223" y="-314" font-family="Times New Roman,serif" font-size="10.00">task_type:TaskLog</text>
</g>
<!-- ann7&#45;&gt;n7 -->
<g id="edge7" class="edge">
<title>ann7&#45;&gt;n7</title>
<path fill="none" stroke="gray" stroke-dasharray="5,2" d="M240,-335.18C240,-348.92 240,-368.11 240,-381.85"/>
</g>
<!-- ann8 -->
<g id="node16" class="node">
<title>ann8</title>
<polygon fill="none" stroke="gray" points="556.5,-335 425.5,-335 425.5,-299 562.5,-299 562.5,-329 556.5,-335"/>
<polyline fill="none" stroke="gray" points="556.5,-335 556.5,-329 "/>
<polyline fill="none" stroke="gray" points="562.5,-329 556.5,-329 "/>
<g id="a_node16_11"><a xlink:href="http://www.w3.org/ns/prov#type" xlink:title="&lt;TABLE&gt;">
<text text-anchor="start" x="436" y="-314" font-family="Times New Roman,serif" font-size="10.00">prov:type</text>
</a>
</g>
<text text-anchor="start" x="477" y="-314" font-family="Times New Roman,serif" font-size="10.00">task_type:DbEntry</text>
</g>
<!-- ann8&#45;&gt;n8 -->
<g id="edge8" class="edge">
<title>ann8&#45;&gt;n8</title>
<path fill="none" stroke="gray" stroke-dasharray="5,2" d="M495.06,-335.18C495.91,-348.92 497.09,-368.11 497.94,-381.85"/>
</g>
<!-- ann9 -->
<g id="node18" class="node">
<title>ann9</title>
<polygon fill="none" stroke="gray" points="147.5,-335 16.5,-335 16.5,-299 153.5,-299 153.5,-329 147.5,-335"/>
<polyline fill="none" stroke="gray" points="147.5,-335 147.5,-329 "/>
<polyline fill="none" stroke="gray" points="153.5,-329 147.5,-329 "/>
<g id="a_node18_12"><a xlink:href="http://www.w3.org/ns/prov#type" xlink:title="&lt;TABLE&gt;">
<text text-anchor="start" x="27" y="-314" font-family="Times New Roman,serif" font-size="10.00">prov:type</text>
</a>
</g>
<text text-anchor="start" x="68" y="-314" font-family="Times New Roman,serif" font-size="10.00">task_type:DbEntry</text>
</g>
<!-- ann9&#45;&gt;n9 -->
<g id="edge9" class="edge">
<title>ann9&#45;&gt;n9</title>
<path fill="none" stroke="gray" stroke-dasharray="5,2" d="M89.03,-335.18C92.25,-348.92 96.75,-368.11 99.98,-381.85"/>
</g>
<!-- n10&#45;&gt;n3 -->
<g id="edge14" class="edge">
<title>n10&#45;&gt;n3</title>
<path fill="none" stroke="#fed37f" d="M340.14,-581.48C362.19,-594.72 394.97,-614.38 419.16,-628.9"/>
<polygon fill="#fed37f" stroke="#fed37f" points="417.6,-632.04 427.97,-634.18 421.2,-626.04 417.6,-632.04"/>
<text text-anchor="middle" x="425" y="-605" font-family="Times New Roman,serif" font-size="10.00">wasAttributedTo</text>
</g>
<!-- ann10 -->
<g id="node20" class="node">
<title>ann10</title>
<polygon fill="none" stroke="gray" points="309,-501 181,-501 181,-465 315,-465 315,-495 309,-501"/>
<polyline fill="none" stroke="gray" points="309,-501 309,-495 "/>
<polyline fill="none" stroke="gray" points="315,-495 309,-495 "/>
<g id="a_node20_13"><a xlink:href="http://www.w3.org/ns/prov#type" xlink:title="&lt;TABLE&gt;">
<text text-anchor="start" x="191" y="-480" font-family="Times New Roman,serif" font-size="10.00">prov:type</text>
</a>
</g>
<text text-anchor="start" x="232" y="-480" font-family="Times New Roman,serif" font-size="10.00">task_type:Product</text>
</g>
<!-- ann10&#45;&gt;n10 -->
<g id="edge10" class="edge">
<title>ann10&#45;&gt;n10</title>
<path fill="none" stroke="gray" stroke-dasharray="5,2" d="M262.42,-501.18C274.19,-515.2 290.72,-534.89 302.3,-548.68"/>
</g>
<!-- n11&#45;&gt;n4 -->
<g id="edge17" class="edge">
<title>n11&#45;&gt;n4</title>
<path fill="none" stroke="#8b0000" d="M592.79,-412.77C582.05,-417.21 569.55,-422.11 558,-426 495.57,-447.02 477.73,-444.9 415,-465 412.26,-465.88 409.45,-466.82 406.62,-467.79"/>
<polygon fill="#8b0000" stroke="#8b0000" points="405.34,-464.53 397.08,-471.18 407.68,-471.13 405.34,-464.53"/>
<text text-anchor="middle" x="534.5" y="-439" font-family="Times New Roman,serif" font-size="10.00" fill="red">used</text>
</g>
<!-- b1 -->
<g id="node23" class="node">
<title>b1</title>
<ellipse fill="gray" stroke="gray" cx="620" cy="-483" rx="1.8" ry="1.8"/>
</g>
<!-- n11&#45;&gt;b1 -->
<g id="edge12" class="edge">
<title>n11&#45;&gt;b1</title>
<path fill="none" stroke="#fed37f" d="M620,-418.18C620,-439.73 620,-474.63 620,-480.99"/>
<text text-anchor="middle" x="660" y="-439" font-family="Times New Roman,serif" font-size="10.00">wasAssociatedWith</text>
</g>
<!-- ann11 -->
<g id="node22" class="node">
<title>ann11</title>
<polygon fill="none" stroke="gray" points="695.5,-335 580.5,-335 580.5,-299 701.5,-299 701.5,-329 695.5,-335"/>
<polyline fill="none" stroke="gray" points="695.5,-335 695.5,-329 "/>
<polyline fill="none" stroke="gray" points="701.5,-329 695.5,-329 "/>
<g id="a_node22_14"><a xlink:href="http://www.w3.org/ns/prov#type" xlink:title="&lt;TABLE&gt;">
<text text-anchor="start" x="591" y="-314" font-family="Times New Roman,serif" font-size="10.00">prov:type</text>
</a>
</g>
<text text-anchor="start" x="632" y="-314" font-family="Times New Roman,serif" font-size="10.00">task_type:Task</text>
</g>
<!-- ann11&#45;&gt;n11 -->
<g id="edge11" class="edge">
<title>ann11&#45;&gt;n11</title>
<path fill="none" stroke="gray" stroke-dasharray="5,2" d="M636.55,-335.18C632.98,-348.92 628.01,-368.11 624.45,-381.85"/>
</g>
<!-- b1&#45;&gt;n1 -->
<g id="edge13" class="edge">
<title>b1&#45;&gt;n1</title>
<path fill="none" stroke="#fed37f" d="M619.89,-484.91C619.21,-490.41 615.59,-519.72 612.93,-541.3"/>
<polygon fill="#fed37f" stroke="#fed37f" points="609.43,-541.07 611.68,-551.42 616.38,-541.92 609.43,-541.07"/>
</g>
<!-- n12 -->
<g id="node24" class="node">
<title>n12</title>
<g id="a_node24"><a xlink:href="https://bacardi.dlr.de/prov/entity/Input/2" xlink:title="input:2">
<ellipse fill="#fffc87" stroke="#808080" cx="863" cy="-317" rx="36.29" ry="18"/>
<text text-anchor="middle" x="863" y="-313.3" font-family="Times New Roman,serif" font-size="14.00">input:2</text>
</a>
</g>
</g>
<!-- n12&#45;&gt;n8 -->
<g id="edge28" class="edge">
<title>n12&#45;&gt;n8</title>
<path fill="none" stroke="black" d="M834.01,-327.92C826.26,-330.4 817.85,-332.94 810,-335 785.3,-341.48 633.46,-372.1 551.44,-388.53"/>
<polygon fill="black" stroke="black" points="550.68,-385.11 541.56,-390.51 552.05,-391.98 550.68,-385.11"/>
<text text-anchor="middle" x="743.5" y="-356" font-family="Times New Roman,serif" font-size="10.00">hadMember</text>
</g>
<!-- n15 -->
<g id="node30" class="node">
<title>n15</title>
<g id="a_node30"><a xlink:href="https://bacardi.dlr.de/prov/entity/TaskConfiguration/2" xlink:title="task_config:2">
<ellipse fill="#fffc87" stroke="#808080" cx="912" cy="-400" rx="60.39" ry="18"/>
<text text-anchor="middle" x="912" y="-396.3" font-family="Times New Roman,serif" font-size="14.00">task_config:2</text>
</a>
</g>
</g>
<!-- n12&#45;&gt;n15 -->
<g id="edge29" class="edge">
<title>n12&#45;&gt;n15</title>
<path fill="none" stroke="black" d="M872.92,-334.39C879.67,-345.55 888.74,-360.55 896.45,-373.29"/>
<polygon fill="black" stroke="black" points="893.59,-375.33 901.76,-382.08 899.58,-371.71 893.59,-375.33"/>
<text text-anchor="middle" x="914.5" y="-356" font-family="Times New Roman,serif" font-size="10.00">hadMember</text>
</g>
<!-- ann12 -->
<g id="node25" class="node">
<title>ann12</title>
<polygon fill="none" stroke="gray" points="1095,-252 977,-252 977,-216 1101,-216 1101,-246 1095,-252"/>
<polyline fill="none" stroke="gray" points="1095,-252 1095,-246 "/>
<polyline fill="none" stroke="gray" points="1101,-246 1095,-246 "/>
<g id="a_node25_15"><a xlink:href="http://www.w3.org/ns/prov#type" xlink:title="&lt;TABLE&gt;">
<text text-anchor="start" x="987" y="-238" font-family="Times New Roman,serif" font-size="10.00">prov:type</text>
</a>
</g>
<g id="a_node25_16"><a xlink:href="http://www.w3.org/ns/prov#collection" xlink:title="&lt;TABLE&gt;">
<text text-anchor="start" x="1028" y="-238" font-family="Times New Roman,serif" font-size="10.00">prov:collection</text>
</a>
</g>
<g id="a_node25_17"><a xlink:href="http://www.w3.org/ns/prov#type" xlink:title="&lt;TABLE&gt;">
<text text-anchor="start" x="987" y="-225" font-family="Times New Roman,serif" font-size="10.00">prov:type</text>
</a>
</g>
<text text-anchor="start" x="1028" y="-225" font-family="Times New Roman,serif" font-size="10.00">task_type:Input</text>
</g>
<!-- ann12&#45;&gt;n12 -->
<g id="edge22" class="edge">
<title>ann12&#45;&gt;n12</title>
<path fill="none" stroke="gray" stroke-dasharray="5,2" d="M1001.67,-252.18C967.77,-267.78 918.64,-290.39 888.87,-304.09"/>
</g>
<!-- n13 -->
<g id="node26" class="node">
<title>n13</title>
<g id="a_node26"><a xlink:href="https://bacardi.dlr.de/prov/entity/Output/2" xlink:title="output:2">
<ellipse fill="#fffc87" stroke="#808080" cx="1061" cy="-130" rx="40.89" ry="18"/>
<text text-anchor="middle" x="1061" y="-126.3" font-family="Times New Roman,serif" font-size="14.00">output:2</text>
</a>
</g>
</g>
<!-- n14 -->
<g id="node28" class="node">
<title>n14</title>
<g id="a_node28"><a xlink:href="https://bacardi.dlr.de/prov/entity/Product/2" xlink:title="product:2">
<ellipse fill="#fffc87" stroke="#808080" cx="1178" cy="-234" rx="45.49" ry="18"/>
<text text-anchor="middle" x="1178" y="-230.3" font-family="Times New Roman,serif" font-size="14.00">product:2</text>
</a>
</g>
</g>
<!-- n13&#45;&gt;n14 -->
<g id="edge31" class="edge">
<title>n13&#45;&gt;n14</title>
<path fill="none" stroke="black" d="M1078.52,-146.27C1098.05,-163.3 1129.83,-191 1152.2,-210.51"/>
<polygon fill="black" stroke="black" points="1150.14,-213.36 1159.98,-217.29 1154.74,-208.08 1150.14,-213.36"/>
<text text-anchor="middle" x="1136.5" y="-169" font-family="Times New Roman,serif" font-size="10.00">hadMember</text>
</g>
<!-- n16 -->
<g id="node32" class="node">
<title>n16</title>
<g id="a_node32"><a xlink:href="https://bacardi.dlr.de/prov/entity/TaskLog/2" xlink:title="task_log:2">
<ellipse fill="#fffc87" stroke="#808080" cx="823" cy="-234" rx="48.99" ry="18"/>
<text text-anchor="middle" x="823" y="-230.3" font-family="Times New Roman,serif" font-size="14.00">task_log:2</text>
</a>
</g>
</g>
<!-- n13&#45;&gt;n16 -->
<g id="edge32" class="edge">
<title>n13&#45;&gt;n16</title>
<path fill="none" stroke="black" d="M1030.61,-142.22C1024.49,-144.28 1018.07,-146.32 1012,-148 974.37,-158.42 962.19,-151.32 926,-166 911.38,-171.93 909.26,-176.44 896,-185 882.23,-193.89 867.08,-203.83 854.16,-212.34"/>
<polygon fill="black" stroke="black" points="852.04,-209.55 845.62,-217.98 855.9,-215.39 852.04,-209.55"/>
<text text-anchor="middle" x="950.5" y="-169" font-family="Times New Roman,serif" font-size="10.00">hadMember</text>
</g>
<!-- n17 -->
<g id="node34" class="node">
<title>n17</title>
<g id="a_node34"><a xlink:href="https://bacardi.dlr.de/prov/activity/Task/2" xlink:title="task:2">
<polygon fill="#9fb1fc" stroke="#0000ff" points="959,-252 905,-252 905,-216 959,-216 959,-252"/>
<text text-anchor="middle" x="932" y="-230.3" font-family="Times New Roman,serif" font-size="14.00">task:2</text>
</a>
</g>
</g>
<!-- n13&#45;&gt;n17 -->
<g id="edge33" class="edge">
<title>n13&#45;&gt;n17</title>
<path fill="none" stroke="darkgreen" d="M1033.05,-143.52C1013.52,-153.11 987.54,-167.63 968,-185 960.84,-191.37 954.17,-199.36 948.58,-206.98"/>
<polygon fill="darkgreen" stroke="darkgreen" points="945.38,-205.44 942.53,-215.64 951.12,-209.45 945.38,-205.44"/>
<text text-anchor="middle" x="1025.5" y="-169" font-family="Times New Roman,serif" font-size="10.00" fill="darkgreen">wasGeneratedBy</text>
</g>
<!-- ann13 -->
<g id="node27" class="node">
<title>ann13</title>
<polygon fill="none" stroke="gray" points="1120,-75 996,-75 996,-39 1126,-39 1126,-69 1120,-75"/>
<polyline fill="none" stroke="gray" points="1120,-75 1120,-69 "/>
<polyline fill="none" stroke="gray" points="1126,-69 1120,-69 "/>
<g id="a_node27_18"><a xlink:href="http://www.w3.org/ns/prov#type" xlink:title="&lt;TABLE&gt;">
<text text-anchor="start" x="1006" y="-61" font-family="Times New Roman,serif" font-size="10.00">prov:type</text>
</a>
</g>
<g id="a_node27_19"><a xlink:href="http://www.w3.org/ns/prov#collection" xlink:title="&lt;TABLE&gt;">
<text text-anchor="start" x="1047" y="-61" font-family="Times New Roman,serif" font-size="10.00">prov:collection</text>
</a>
</g>
<g id="a_node27_20"><a xlink:href="http://www.w3.org/ns/prov#type" xlink:title="&lt;TABLE&gt;">
<text text-anchor="start" x="1006" y="-48" font-family="Times New Roman,serif" font-size="10.00">prov:type</text>
</a>
</g>
<text text-anchor="start" x="1047" y="-48" font-family="Times New Roman,serif" font-size="10.00">task_type:Output</text>
</g>
<!-- ann13&#45;&gt;n13 -->
<g id="edge23" class="edge">
<title>ann13&#45;&gt;n13</title>
<path fill="none" stroke="gray" stroke-dasharray="5,2" d="M1061,-75.19C1061,-86.35 1061,-100.84 1061,-111.97"/>
</g>
<!-- n14&#45;&gt;n2 -->
<g id="edge34" class="edge">
<title>n14&#45;&gt;n2</title>
<path fill="none" stroke="#fed37f" d="M1178,-252.06C1178.09,-260.73 1178.35,-271.44 1179,-281 1179.25,-284.65 1179.6,-288.5 1179.99,-292.27"/>
<polygon fill="#fed37f" stroke="#fed37f" points="1176.53,-292.86 1181.15,-302.4 1183.49,-292.06 1176.53,-292.86"/>
<text text-anchor="middle" x="1213" y="-273" font-family="Times New Roman,serif" font-size="10.00">wasAttributedTo</text>
</g>
<!-- ann14 -->
<g id="node29" class="node">
<title>ann14</title>
<polygon fill="none" stroke="gray" points="1248,-148 1120,-148 1120,-112 1254,-112 1254,-142 1248,-148"/>
<polyline fill="none" stroke="gray" points="1248,-148 1248,-142 "/>
<polyline fill="none" stroke="gray" points="1254,-142 1248,-142 "/>
<g id="a_node29_21"><a xlink:href="http://www.w3.org/ns/prov#type" xlink:title="&lt;TABLE&gt;">
<text text-anchor="start" x="1130" y="-127" font-family="Times New Roman,serif" font-size="10.00">prov:type</text>
</a>
</g>
<text text-anchor="start" x="1171" y="-127" font-family="Times New Roman,serif" font-size="10.00">task_type:Product</text>
</g>
<!-- ann14&#45;&gt;n14 -->
<g id="edge24" class="edge">
<title>ann14&#45;&gt;n14</title>
<path fill="none" stroke="gray" stroke-dasharray="5,2" d="M1185.47,-148.3C1183.81,-167.17 1181.16,-197.18 1179.5,-215.95"/>
</g>
<!-- ann15 -->
<g id="node31" class="node">
<title>ann15</title>
<polygon fill="none" stroke="gray" points="1088.5,-335 917.5,-335 917.5,-299 1094.5,-299 1094.5,-329 1088.5,-335"/>
<polyline fill="none" stroke="gray" points="1088.5,-335 1088.5,-329 "/>
<polyline fill="none" stroke="gray" points="1094.5,-329 1088.5,-329 "/>
<g id="a_node31_22"><a xlink:href="http://www.w3.org/ns/prov#type" xlink:title="&lt;TABLE&gt;">
<text text-anchor="start" x="928" y="-314" font-family="Times New Roman,serif" font-size="10.00">prov:type</text>
</a>
</g>
<text text-anchor="start" x="969" y="-314" font-family="Times New Roman,serif" font-size="10.00">task_type:TaskConfiguration</text>
</g>
<!-- ann15&#45;&gt;n15 -->
<g id="edge25" class="edge">
<title>ann15&#45;&gt;n15</title>
<path fill="none" stroke="gray" stroke-dasharray="5,2" d="M986.07,-335.18C969.79,-349.2 946.95,-368.89 930.94,-382.68"/>
</g>
<!-- ann16 -->
<g id="node33" class="node">
<title>ann16</title>
<polygon fill="none" stroke="gray" points="857.5,-148 726.5,-148 726.5,-112 863.5,-112 863.5,-142 857.5,-148"/>
<polyline fill="none" stroke="gray" points="857.5,-148 857.5,-142 "/>
<polyline fill="none" stroke="gray" points="863.5,-142 857.5,-142 "/>
<g id="a_node33_23"><a xlink:href="http://www.w3.org/ns/prov#type" xlink:title="&lt;TABLE&gt;">
<text text-anchor="start" x="737" y="-127" font-family="Times New Roman,serif" font-size="10.00">prov:type</text>
</a>
</g>
<text text-anchor="start" x="778" y="-127" font-family="Times New Roman,serif" font-size="10.00">task_type:TaskLog</text>
</g>
<!-- ann16&#45;&gt;n16 -->
<g id="edge26" class="edge">
<title>ann16&#45;&gt;n16</title>
<path fill="none" stroke="gray" stroke-dasharray="5,2" d="M799.75,-148.3C804.93,-167.17 813.17,-197.18 818.32,-215.95"/>
</g>
<!-- n17&#45;&gt;n11 -->
<g id="edge37" class="edge">
<title>n17&#45;&gt;n11</title>
<path fill="none" stroke="black" d="M904.72,-244.1C856.03,-260.43 758.69,-293.52 753,-299 730.59,-320.59 749.7,-342.72 727,-364 708.08,-381.74 680.03,-390.49 657.4,-394.81"/>
<polygon fill="black" stroke="black" points="656.71,-391.37 647.43,-396.49 657.88,-398.28 656.71,-391.37"/>
<text text-anchor="middle" x="785.5" y="-314.5" font-family="Times New Roman,serif" font-size="10.00">wasInformedBy</text>
</g>
<!-- n17&#45;&gt;n12 -->
<g id="edge30" class="edge">
<title>n17&#45;&gt;n12</title>
<path fill="none" stroke="#8b0000" d="M917.37,-252.18C907.44,-263.83 894.18,-279.4 883.24,-292.24"/>
<polygon fill="#8b0000" stroke="#8b0000" points="880.26,-290.34 876.44,-300.22 885.59,-294.88 880.26,-290.34"/>
<text text-anchor="middle" x="910.5" y="-273" font-family="Times New Roman,serif" font-size="10.00" fill="red">used</text>
</g>
<!-- b2 -->
<g id="node36" class="node">
<title>b2</title>
<ellipse fill="gray" stroke="gray" cx="1291" cy="-317" rx="1.8" ry="1.8"/>
</g>
<!-- n17&#45;&gt;b2 -->
<g id="edge35" class="edge">
<title>n17&#45;&gt;b2</title>
<path fill="none" stroke="#fed37f" d="M959.12,-249.1C962.06,-250.24 965.06,-251.24 968,-252 1029.02,-267.73 1194.51,-242.06 1251,-270 1273.01,-280.88 1287.98,-309.82 1290.59,-315.15"/>
<text text-anchor="middle" x="1305" y="-273" font-family="Times New Roman,serif" font-size="10.00">wasAssociatedWith</text>
</g>
<!-- ann17 -->
<g id="node35" class="node">
<title>ann17</title>
<polygon fill="none" stroke="gray" points="996.5,-148 881.5,-148 881.5,-112 1002.5,-112 1002.5,-142 996.5,-148"/>
<polyline fill="none" stroke="gray" points="996.5,-148 996.5,-142 "/>
<polyline fill="none" stroke="gray" points="1002.5,-142 996.5,-142 "/>
<g id="a_node35_24"><a xlink:href="http://www.w3.org/ns/prov#type" xlink:title="&lt;TABLE&gt;">
<text text-anchor="start" x="892" y="-127" font-family="Times New Roman,serif" font-size="10.00">prov:type</text>
</a>
</g>
<text text-anchor="start" x="933" y="-127" font-family="Times New Roman,serif" font-size="10.00">task_type:Task</text>
</g>
<!-- ann17&#45;&gt;n17 -->
<g id="edge27" class="edge">
<title>ann17&#45;&gt;n17</title>
<path fill="none" stroke="gray" stroke-dasharray="5,2" d="M940.3,-148.3C938.45,-167.17 935.51,-197.18 933.67,-215.95"/>
</g>
<!-- b2&#45;&gt;n1 -->
<g id="edge36" class="edge">
<title>b2&#45;&gt;n1</title>
<path fill="none" stroke="#fed37f" d="M1291.11,-318.83C1292.09,-327.03 1298.96,-393.65 1266,-426 1245.52,-446.1 867.35,-517.71 694.69,-549.55"/>
<polygon fill="#fed37f" stroke="#fed37f" points="693.83,-546.15 684.62,-551.4 695.09,-553.03 693.83,-546.15"/>
</g>
</g>
</svg>
